<svg width="11" height="18" viewBox="0 0 11 18" fill="none" xmlns="http://www.w3.org/2000/svg">
<mask id="path-1-outside-1" maskUnits="userSpaceOnUse" x="0" y="0" width="11" height="18" fill="black">
<rect fill="white" width="11" height="18"/>
<path fill-rule="evenodd" clip-rule="evenodd" d="M1.00001 9C0.998882 9.25528 1.09575 9.5109 1.2906 9.70567C1.31733 9.7324 1.34522 9.75728 1.37409 9.78031L8.30627 16.7095C8.69373 17.0968 9.32194 17.0968 9.7094 16.7095C10.0969 16.3222 10.0969 15.6943 9.7094 15.307L3.39971 9L9.7094 2.69301C10.0969 2.30571 10.0969 1.67777 9.7094 1.29047C9.32194 0.903175 8.69373 0.903175 8.30627 1.29047L1.37409 8.21969C1.34522 8.24272 1.31733 8.2676 1.2906 8.29433C1.09575 8.4891 0.998882 8.74472 1.00001 9Z"/>
</mask>
<path fill-rule="evenodd" clip-rule="evenodd" d="M1.00001 9C0.998882 9.25528 1.09575 9.5109 1.2906 9.70567C1.31733 9.7324 1.34522 9.75728 1.37409 9.78031L8.30627 16.7095C8.69373 17.0968 9.32194 17.0968 9.7094 16.7095C10.0969 16.3222 10.0969 15.6943 9.7094 15.307L3.39971 9L9.7094 2.69301C10.0969 2.30571 10.0969 1.67777 9.7094 1.29047C9.32194 0.903175 8.69373 0.903175 8.30627 1.29047L1.37409 8.21969C1.34522 8.24272 1.31733 8.2676 1.2906 8.29433C1.09575 8.4891 0.998882 8.74472 1.00001 9Z" fill="white"/>
<path d="M1.2906 9.70567L0.937121 10.0593L0.937122 10.0593L1.2906 9.70567ZM1.00001 9L1.50002 9.00221L1.5 8.99779L1.00001 9ZM1.37409 9.78031L1.72756 9.42668L1.70779 9.40692L1.68594 9.38948L1.37409 9.78031ZM8.30627 16.7095L7.95279 17.0632L7.95279 17.0632L8.30627 16.7095ZM9.7094 16.7095L10.0629 17.0632L10.0629 17.0632L9.7094 16.7095ZM9.7094 15.307L9.35592 15.6606L9.35592 15.6606L9.7094 15.307ZM3.39971 9L3.04623 8.64637L2.69245 9L3.04623 9.35363L3.39971 9ZM9.7094 2.69301L9.35592 2.33938L9.35592 2.33938L9.7094 2.69301ZM9.7094 1.29047L10.0629 0.936845L9.7094 1.29047ZM8.30627 1.29047L7.95279 0.936845L7.95279 0.936845L8.30627 1.29047ZM1.37409 8.21969L1.68594 8.61052L1.70779 8.59308L1.72757 8.57331L1.37409 8.21969ZM1.2906 8.29433L1.64408 8.64796L1.64408 8.64796L1.2906 8.29433ZM1.64408 9.35204C1.54736 9.25537 1.49944 9.12951 1.5 9.00221L0.500015 8.99779C0.498322 9.38104 0.644132 9.76644 0.937121 10.0593L1.64408 9.35204ZM1.68594 9.38948C1.6716 9.37804 1.65761 9.36558 1.64407 9.35204L0.937122 10.0593C0.977053 10.0992 1.01883 10.1365 1.06223 10.1711L1.68594 9.38948ZM8.65974 16.3559L1.72756 9.42668L1.02061 10.1339L7.95279 17.0632L8.65974 16.3559ZM9.35592 16.3559C9.1637 16.548 8.85197 16.548 8.65974 16.3559L7.95279 17.0632C8.5355 17.6456 9.48017 17.6456 10.0629 17.0632L9.35592 16.3559ZM9.35592 15.6606C9.54803 15.8526 9.54803 16.1639 9.35592 16.3559L10.0629 17.0632C10.6457 16.4806 10.6457 15.5359 10.0629 14.9534L9.35592 15.6606ZM3.04623 9.35363L9.35592 15.6606L10.0629 14.9534L3.75318 8.64637L3.04623 9.35363ZM9.35592 2.33938L3.04623 8.64637L3.75318 9.35363L10.0629 3.04664L9.35592 2.33938ZM9.35592 1.6441C9.54803 1.83612 9.54803 2.14736 9.35592 2.33938L10.0629 3.04664C10.6457 2.46406 10.6457 1.51942 10.0629 0.936845L9.35592 1.6441ZM8.65974 1.6441C8.85197 1.45197 9.1637 1.45197 9.35592 1.6441L10.0629 0.936845C9.48017 0.354385 8.5355 0.354385 7.95279 0.936845L8.65974 1.6441ZM1.72757 8.57331L8.65974 1.6441L7.95279 0.936845L1.02061 7.86606L1.72757 8.57331ZM1.64408 8.64796C1.65762 8.63442 1.6716 8.62196 1.68594 8.61052L1.06224 7.82886C1.01884 7.86348 0.977054 7.90078 0.93712 7.9407L1.64408 8.64796ZM1.5 8.99779C1.49944 8.87049 1.54736 8.74463 1.64408 8.64796L0.937121 7.9407C0.644132 8.23356 0.498322 8.61896 0.500015 9.00221L1.5 8.99779Z" fill="white" mask="url(#path-1-outside-1)"/>
</svg>
