<svg width="182" height="48" viewBox="0 0 182 48" fill="none" xmlns="http://www.w3.org/2000/svg">
<path d="M23.7628 5.19358L37.3319 0L15.2906 30.4271L23.7628 5.19358Z" fill="#ED1D24"/>
<path d="M10.3379 16.3837L14.9316 30.5004L0 12.2163L10.3379 16.3837Z" fill="#ED1D24"/>
<path d="M10.7686 16.7502L12.492 18.6519L14.9326 30.1344C14.9326 30.1354 10.8392 16.5313 10.7686 16.7502Z" fill="#A7A9AC"/>
<path d="M37.6194 0.145996L38.5532 1.75495L15.5781 30.3552L37.6194 0.145996Z" fill="#A7A9AC"/>
<path d="M101.357 41.3462H15.5216V40.9766H101.357V41.3462Z" fill="#231F20"/>
<path d="M34.1187 30.3073V15.8286H46.0462C46.9716 15.8286 47.7414 15.9189 48.3577 16.0965C48.9749 16.275 49.4687 16.5428 49.838 16.9C50.2093 17.2571 50.4684 17.6996 50.6239 18.2334C50.7775 18.771 50.8557 19.3931 50.8557 20.1064V26.1735C50.8557 26.858 50.7775 27.459 50.6239 27.9726C50.4675 28.4862 50.2084 28.9153 49.838 29.258C49.4687 29.5988 48.9749 29.8618 48.3577 30.0385C47.7414 30.217 46.9716 30.3063 46.0462 30.3063H34.1187V30.3073ZM48.3954 20.1064C48.3954 19.6955 48.3577 19.3528 48.2842 19.0782C48.2107 18.8046 48.0835 18.5838 47.9045 18.4196C47.7273 18.2545 47.4842 18.1393 47.1845 18.0712C46.8821 18.004 46.5033 17.9675 46.0462 17.9675H36.578V28.1674H46.0462C46.5033 28.1674 46.8821 28.1338 47.1845 28.0638C47.4842 27.9956 47.7273 27.8862 47.9045 27.7345C48.0835 27.5857 48.2116 27.3783 48.2842 27.1191C48.3577 26.858 48.3954 26.5364 48.3954 26.1524V20.1064Z" fill="#231F20"/>
<path d="M46.0462 30.8166H33.6201V15.3203H46.0471C47.012 15.3203 47.8337 15.4173 48.4933 15.6074C49.1878 15.808 49.756 16.1181 50.1838 16.5299C50.6154 16.9456 50.9245 17.4717 51.1054 18.0889C51.2712 18.6736 51.356 19.3533 51.356 20.1078V26.1731C51.356 26.9046 51.2722 27.5603 51.1035 28.1209C50.9226 28.7228 50.6097 29.2326 50.1763 29.6348C49.7456 30.0342 49.1784 30.3337 48.4943 30.5295C47.8384 30.7187 47.0149 30.8166 46.0462 30.8166ZM34.618 29.798H46.0462C46.9216 29.798 47.6528 29.7145 48.221 29.5484C48.7581 29.3958 49.1887 29.1711 49.5025 28.8812C49.8059 28.6009 50.0161 28.2534 50.1452 27.8233C50.2846 27.3587 50.3553 26.8028 50.3553 26.1731V20.1078C50.3553 19.4483 50.2846 18.8675 50.1452 18.376C50.0142 17.9277 49.8003 17.5657 49.494 17.2691C49.1878 16.9725 48.7581 16.7421 48.221 16.5865C47.6509 16.4214 46.9178 16.3389 46.0462 16.3389H34.618V29.798ZM46.0462 28.6777H36.0776V17.4582H46.0462C46.5324 17.4582 46.9498 17.4976 47.2928 17.5744C47.683 17.6617 47.9996 17.8192 48.2417 18.0438C48.4896 18.2723 48.6667 18.5757 48.7657 18.9443C48.8523 19.2678 48.8957 19.6585 48.8957 20.1078V26.1529C48.8957 26.5763 48.8523 26.9487 48.7647 27.2598C48.662 27.6217 48.4801 27.9155 48.2229 28.1295C47.9873 28.3292 47.6745 28.4751 47.2938 28.5615C46.9546 28.6383 46.5456 28.6777 46.0462 28.6777ZM37.0774 27.6591H46.0462C46.4636 27.6591 46.8113 27.6284 47.0752 27.567C47.2994 27.5171 47.4691 27.4431 47.5831 27.3452C47.6867 27.2588 47.7583 27.1398 47.8036 26.9785C47.8658 26.7606 47.8959 26.4822 47.8959 26.1529V20.1078C47.8959 19.7488 47.8639 19.4473 47.8017 19.2121C47.7536 19.0336 47.6782 18.8973 47.5689 18.7974C47.4568 18.6947 47.2928 18.6169 47.0752 18.568C46.8057 18.5075 46.4589 18.4758 46.0462 18.4758H37.0774V27.6591Z" fill="#231F20"/>
<path d="M56.4483 24.3438V30.3063H53.9889V15.8296H67.378V17.9675H56.4483V22.204H66.6373V24.3438H56.4483Z" fill="#231F20"/>
<path d="M56.9488 30.8161H53.4886V15.3198H67.8775V18.4763H56.9488V21.6952H67.1369V24.8545H56.9488V30.8161ZM54.4884 29.7975H55.949V23.836H66.1371V22.7137H55.949V17.4587H66.8777V16.3393H54.4884V29.7975Z" fill="#231F20"/>
<path d="M73.5245 30.3063C72.7857 30.3063 72.1572 30.2209 71.638 30.0491C71.1207 29.8782 70.6976 29.6372 70.3725 29.33C70.0446 29.0219 69.8071 28.6561 69.6592 28.2299C69.5103 27.8055 69.4377 27.3332 69.4377 26.812V19.3249C69.4377 18.8056 69.5112 18.3313 69.6592 17.907C69.8071 17.4827 70.0446 17.115 70.3725 16.8059C70.6985 16.4987 71.1207 16.2587 71.638 16.0869C72.1572 15.915 72.7857 15.8296 73.5245 15.8296H84.0104V17.9665H73.5245C72.438 17.9665 71.8971 18.4149 71.8971 19.3048V26.8331C71.8971 27.7239 72.438 28.1694 73.5245 28.1694H84.0104V30.3073H73.5245V30.3063Z" fill="#231F20"/>
<path d="M84.5099 30.8156H73.5246C72.7359 30.8156 72.0518 30.7206 71.4845 30.5334C70.9012 30.3404 70.4122 30.0611 70.0325 29.702C69.648 29.3411 69.3625 28.9023 69.1882 28.3983C69.0214 27.926 68.9375 27.3923 68.9375 26.8124V19.3245C68.9375 18.7446 69.0214 18.2089 69.1891 17.7347C69.3644 17.2345 69.6471 16.7958 70.0325 16.4329C70.4103 16.0758 70.8994 15.7955 71.4845 15.6035C72.049 15.4144 72.7359 15.3203 73.5246 15.3203H84.5099V18.4768H73.5246C72.4834 18.4768 72.3957 18.904 72.3957 19.3043V26.8336C72.3957 27.2319 72.4834 27.6601 73.5246 27.6601H84.5099V30.8156ZM73.5246 16.3379C72.8424 16.3379 72.2591 16.4166 71.7945 16.5712C71.346 16.7181 70.9823 16.9235 70.7118 17.1789C70.4414 17.4333 70.253 17.727 70.1295 18.0774C70.0023 18.4432 69.9354 18.8617 69.9354 19.3254V26.8124C69.9354 27.2742 70.0014 27.6937 70.1295 28.0575C70.252 28.4108 70.4414 28.7027 70.71 28.9551C70.9842 29.2143 71.3479 29.4188 71.7908 29.5657C72.2582 29.7203 72.8414 29.7971 73.5237 29.7971H83.5092V28.6777H73.5246C71.6051 28.6777 71.3969 27.3865 71.3969 26.8336V19.3043C71.3969 18.7485 71.6051 17.4582 73.5246 17.4582H83.5101V16.3379H73.5246V16.3379Z" fill="#231F20"/>
<path d="M90.8977 30.3063C90.1589 30.3063 89.5304 30.2209 89.0102 30.0491C88.4929 29.8782 88.0717 29.6372 87.7447 29.33C87.4177 29.0219 87.1803 28.6561 87.0324 28.2299C86.8835 27.8055 86.8109 27.3332 86.8109 26.812V19.3249C86.8109 18.8056 86.8844 18.3313 87.0324 17.907C87.1803 17.4827 87.4177 17.115 87.7447 16.8059C88.0717 16.4987 88.4929 16.2587 89.0102 16.0869C89.5313 15.915 90.1589 15.8296 90.8977 15.8296H101.384V17.9665H90.8977C89.8112 17.9665 89.2703 18.4149 89.2703 19.3048V26.8331C89.2703 27.7239 89.8112 28.1694 90.8977 28.1694H101.384V30.3073H90.8977V30.3063Z" fill="#231F20"/>
<path d="M101.885 30.8156H90.8976C90.1098 30.8156 89.4248 30.7206 88.8566 30.5334C88.2743 30.3404 87.7852 30.0611 87.4055 29.702C87.021 29.3411 86.7364 28.9014 86.5602 28.3983C86.3953 27.9241 86.3096 27.3894 86.3096 26.8124V19.3245C86.3096 18.7465 86.3944 18.2109 86.5621 17.7357C86.7355 17.2355 87.0201 16.7968 87.4055 16.4329C87.7833 16.0758 88.2714 15.7955 88.8566 15.6035C89.4248 15.4144 90.1098 15.3203 90.8976 15.3203H101.884V18.4768H90.8976C89.8564 18.4768 89.7687 18.904 89.7687 19.3043V26.8336C89.7687 27.2319 89.8564 27.6601 90.8976 27.6601H101.884V30.8156H101.885ZM90.8976 16.3379C90.2135 16.3379 89.6321 16.4166 89.1647 16.5712C88.7181 16.7181 88.3572 16.9235 88.0849 17.1789C87.8163 17.4333 87.625 17.727 87.5053 18.0774C87.3753 18.4432 87.3112 18.8627 87.3112 19.3254V26.8124C87.3112 27.2732 87.3744 27.6927 87.5025 28.0585C87.625 28.4099 87.8144 28.7027 88.083 28.9551C88.3572 29.2153 88.7209 29.4188 89.1638 29.5657C89.6312 29.7203 90.2144 29.7971 90.8967 29.7971H100.883V28.6777H90.8976C88.9782 28.6777 88.7699 27.3865 88.7699 26.8336V19.3043C88.7699 18.7485 88.9782 17.4582 90.8976 17.4582H100.884V16.3379H90.8976V16.3379Z" fill="#231F20"/>
<path d="M108.344 30.3063V15.8296H118.942C119.657 15.8296 120.271 15.9016 120.783 16.0465C121.293 16.1886 121.706 16.395 122.021 16.6629C122.335 16.9307 122.566 17.259 122.713 17.6497C122.862 18.0385 122.936 18.4753 122.936 18.9563V20.2926C122.936 20.9224 122.798 21.4532 122.52 21.8852C122.242 22.3192 121.87 22.588 121.401 22.6974C121.895 22.8491 122.301 23.1054 122.621 23.4692C122.942 23.8321 123.101 24.364 123.101 25.0628V27.1806C123.101 27.5924 123.037 27.986 122.907 28.3643C122.778 28.7415 122.554 29.0737 122.24 29.3607C121.928 29.6478 121.504 29.8791 120.975 30.0491C120.444 30.2209 119.778 30.3063 118.977 30.3063H108.344V30.3063ZM120.475 19.0993C120.475 18.7009 120.364 18.4139 120.143 18.2353C119.923 18.0577 119.522 17.9675 118.942 17.9675H110.805V21.7316H118.942C119.522 21.7316 119.924 21.6433 120.143 21.4648C120.364 21.2872 120.475 20.9992 120.475 20.6017V19.0993ZM120.643 25.1032C120.643 24.6529 120.49 24.3332 120.181 24.1489C119.873 23.9627 119.472 23.8705 118.979 23.8705H110.805V28.1694H118.979C119.472 28.1694 119.874 28.0647 120.181 27.8593C120.49 27.6539 120.643 27.2583 120.643 26.667V25.1032Z" fill="#231F20"/>
<path d="M118.979 30.817H107.846V15.3198H118.944C119.7 15.3198 120.363 15.3995 120.915 15.556C121.49 15.7173 121.971 15.9582 122.34 16.2721C122.722 16.5957 123.004 16.9979 123.182 17.4693C123.35 17.9157 123.437 18.4158 123.437 18.9573V20.2945C123.437 21.0222 123.268 21.6529 122.94 22.1665C122.81 22.3652 122.665 22.539 122.504 22.684C122.682 22.8155 122.848 22.9633 122.995 23.1323C123.399 23.5873 123.604 24.2372 123.604 25.0647V27.1835C123.604 27.6519 123.528 28.107 123.381 28.5351C123.226 28.9911 122.956 29.3972 122.579 29.7428C122.212 30.0769 121.726 30.3428 121.128 30.5367C120.549 30.721 119.825 30.817 118.979 30.817ZM108.845 29.7975H118.978C119.723 29.7975 120.344 29.7198 120.825 29.5652C121.285 29.4164 121.649 29.2215 121.907 28.9835C122.16 28.7511 122.333 28.4948 122.434 28.1972C122.546 27.8775 122.6 27.5358 122.6 27.1815V25.0628C122.6 24.4955 122.482 24.074 122.249 23.811C121.988 23.5134 121.665 23.3089 121.256 23.1841L119.436 22.6283L121.289 22.2001C121.629 22.1204 121.895 21.9275 122.101 21.6059C122.323 21.2612 122.434 20.8177 122.434 20.2916V18.9544C122.434 18.5387 122.373 18.1624 122.247 17.8331C122.13 17.5201 121.951 17.2657 121.699 17.0517C121.44 16.8318 121.086 16.6581 120.647 16.5361C120.181 16.4046 119.608 16.3374 118.942 16.3374H108.845V29.7975ZM118.979 28.6782H110.304V23.3627H118.979C119.562 23.3627 120.051 23.4798 120.435 23.7112C120.757 23.9032 121.143 24.3025 121.143 25.1041V26.667C121.143 27.4369 120.91 27.9812 120.455 28.2855C120.065 28.5447 119.568 28.6782 118.979 28.6782ZM111.303 27.6587H118.979C119.37 27.6587 119.682 27.5838 119.907 27.4331C120.103 27.3015 120.143 26.9444 120.143 26.667V25.1041C120.143 24.7163 119.991 24.626 119.928 24.5876C119.699 24.4494 119.38 24.3803 118.979 24.3803H111.303V27.6587ZM118.943 22.2404H110.304V17.4587H118.943C119.642 17.4587 120.135 17.5816 120.452 17.835C120.801 18.1173 120.976 18.5406 120.976 19.0993V20.6017C120.976 21.1614 120.799 21.5867 120.452 21.8651C120.134 22.1195 119.654 22.2404 118.943 22.2404ZM111.303 21.2209H118.943C119.588 21.2209 119.788 21.1019 119.834 21.0644C119.929 20.9876 119.976 20.8321 119.976 20.6008V19.0984C119.976 18.867 119.928 18.7105 119.832 18.6328C119.788 18.5982 119.586 18.4763 118.943 18.4763H111.303V21.2209V21.2209Z" fill="#231F20"/>
<path d="M140.512 30.3063L133.799 18.6462L126.975 30.3063H124.239L132.893 15.8296H134.689L143.287 30.3063H140.512Z" fill="#231F20"/>
<path d="M144.171 30.8161H140.224L133.797 19.6465L127.259 30.8161H123.349L132.612 15.3198H134.971L144.171 30.8161ZM140.798 29.7975H142.4L134.406 16.3393H133.174L125.127 29.7975H126.691L133.801 17.6469L140.798 29.7975Z" fill="#231F20"/>
<path d="M161.345 30.3063L147.454 19.0379V30.3063H145.31V15.8296H147.438L160.4 26.5844V15.8296H162.546V30.3063H161.345Z" fill="#231F20"/>
<path d="M163.045 30.8161H161.169L147.955 20.0939V30.8161H144.809V15.3198H147.615L159.899 25.514V15.3198H163.046V30.8161H163.045ZM161.519 29.7975H162.046V16.3393H160.9V27.6567L147.257 16.3393H145.809V29.7975H146.956V17.9819L161.519 29.7975Z" fill="#231F20"/>
<path d="M177.384 30.3063L172.467 23.8494H168.231V30.3063H165.772V15.8296H168.231V21.7115H172.411L177.31 15.8296H180.233L174.445 22.5745L180.214 30.3063H177.384Z" fill="#231F20"/>
<path d="M181.22 30.8161H177.139L172.222 24.3572H168.729V30.8161H165.27V15.3198H168.729V21.2027H172.178L177.08 15.3198H181.333L175.089 22.5976L181.22 30.8161ZM177.628 29.7975H179.206L173.802 22.5524L179.132 16.3393H177.544L172.642 22.2212H167.731V16.3393H166.27V29.7975H167.731V23.3406H172.711L177.628 29.7975Z" fill="#231F20"/>
<path d="M110.33 36.9219H111.401L110.236 40.9999H110.273C110.587 40.6726 110.897 40.3721 111.183 40.0966L114.627 36.9219H115.957L111.927 40.5094L113.775 45.3766H112.506L110.957 41.2246L109.904 42.1529L108.983 45.3756H107.912L110.33 36.9219Z" fill="#ED1D24"/>
<path d="M115.962 42.5433C115.56 44.0361 116.321 44.6505 117.404 44.6505C118.179 44.6505 118.687 44.5113 119.144 44.3366L119.102 45.1276C118.67 45.3033 117.957 45.5155 117.01 45.5155C115.175 45.5155 114.435 44.2742 114.956 42.4425C115.482 40.6118 116.95 39.168 118.688 39.168C120.633 39.168 120.652 40.9113 120.332 42.0288C120.267 42.2544 120.193 42.43 120.149 42.5433H115.962ZM119.366 41.7523C119.578 41.0496 119.595 39.958 118.377 39.958C117.281 39.958 116.507 40.9862 116.202 41.7523H119.366Z" fill="#ED1D24"/>
<path d="M122.131 42.5433C121.73 44.0361 122.49 44.6505 123.574 44.6505C124.348 44.6505 124.856 44.5113 125.314 44.3366L125.272 45.1276C124.84 45.3033 124.127 45.5155 123.179 45.5155C121.343 45.5155 120.603 44.2742 121.126 42.4425C121.65 40.6118 123.121 39.168 124.856 39.168C126.803 39.168 126.82 40.9113 126.502 42.0288C126.438 42.2544 126.363 42.43 126.318 42.5433H122.131ZM125.535 41.7523C125.748 41.0496 125.765 39.958 124.544 39.958C123.449 39.958 122.675 40.9862 122.37 41.7523H125.535Z" fill="#ED1D24"/>
<path d="M128.054 41.2886C128.276 40.51 128.429 39.8822 128.572 39.3062H129.546L129.296 40.3468H129.32C129.976 39.6067 130.802 39.168 131.776 39.168C133.216 39.168 133.946 40.4092 133.419 42.2544C132.793 44.4364 131.181 45.5145 129.776 45.5145C128.989 45.5145 128.399 45.1631 128.216 44.5612H128.191L127.247 47.8617H126.176L128.054 41.2886ZM128.664 42.9052C128.617 43.0694 128.599 43.2192 128.585 43.3574C128.562 44.1225 129.063 44.6495 129.84 44.6495C130.985 44.6495 131.923 43.6963 132.32 42.3033C132.669 41.087 132.338 40.0444 131.193 40.0444C130.454 40.0444 129.61 40.5849 129.165 41.4124C129.088 41.5507 129.005 41.7139 128.963 41.8636L128.664 42.9052Z" fill="#ED1D24"/>
<path d="M142.963 45.0007C142.432 45.1773 141.403 45.4653 140.281 45.4653C139.025 45.4653 138.083 45.1399 137.497 44.3479C136.983 43.6461 136.863 42.5172 137.24 41.2C137.973 38.6781 140.2 36.834 142.982 36.834C143.944 36.834 144.634 37.0471 144.939 37.2228L144.428 38.1137C144.042 37.913 143.535 37.7508 142.697 37.7508C140.674 37.7508 138.992 39.0295 138.387 41.1501C137.774 43.2957 138.681 44.562 140.614 44.562C141.314 44.562 141.825 44.4621 142.106 44.3373L142.827 41.8164H141.142L141.392 40.938H144.125L142.963 45.0007Z" fill="#ED1D24"/>
<path d="M145.65 41.2003C145.854 40.4851 146.017 39.8707 146.141 39.3062H147.091L146.786 40.4966H146.836C147.341 39.6825 148.139 39.168 148.866 39.168C148.988 39.168 149.072 39.1814 149.161 39.2064L148.866 40.246C148.762 40.222 148.656 40.2086 148.507 40.2086C147.742 40.2086 147.032 40.798 146.649 41.6256C146.581 41.7772 146.505 41.952 146.45 42.142L145.527 45.3772H144.455L145.65 41.2003Z" fill="#ED1D24"/>
<path d="M154.633 42.2918C153.992 44.5372 152.186 45.5145 150.744 45.5145C149.132 45.5145 148.232 44.3097 148.78 42.3907C149.362 40.3593 151.006 39.168 152.657 39.168C154.369 39.168 155.164 40.4352 154.633 42.2918ZM149.886 42.3542C149.506 43.6848 149.97 44.6879 151.028 44.6879C152.064 44.6879 153.123 43.6953 153.514 42.3283C153.809 41.3001 153.678 39.9945 152.395 39.9945C151.116 39.9955 150.216 41.1993 149.886 42.3542Z" fill="#ED1D24"/>
<path d="M157.198 39.3061L157.103 42.3916C157.082 43.0703 157.06 43.6962 156.994 44.324H157.031C157.343 43.7087 157.726 43.0568 158.114 42.3916L159.967 39.3061H160.878L160.936 42.3416C160.949 43.0703 160.938 43.7096 160.899 44.324H160.933C161.21 43.7087 161.553 43.0703 161.953 42.3541L163.674 39.3061H164.745L161.089 45.3781H160.105L160.022 42.4799C160.005 41.8012 160.005 41.2002 160.062 40.4841H160.036C159.682 41.2127 159.318 41.8396 158.921 42.4904L157.135 45.3772H156.151L156.09 39.3052H157.198V39.3061Z" fill="#ED1D24"/>
<path d="M164.094 45.3773L165.828 39.3063H166.913L165.176 45.3773H164.094ZM167.523 37.5994C167.427 37.9767 167.071 38.2772 166.64 38.2772C166.257 38.2772 166.071 37.9767 166.18 37.5994C166.293 37.2106 166.661 36.9102 167.056 36.9102C167.462 36.9102 167.634 37.2106 167.523 37.5994Z" fill="#ED1D24"/>
<path d="M168.239 40.9488C168.42 40.3238 168.554 39.8073 168.66 39.3062H169.62L169.396 40.3104H169.419C169.882 39.7325 170.733 39.1689 171.716 39.1689C172.541 39.1689 173.68 39.6701 173.084 41.7533L172.047 45.3782H170.964L171.965 41.8781C172.246 40.8989 172.121 40.0838 171.098 40.0838C170.383 40.0838 169.684 40.5974 169.321 41.2128C169.233 41.351 169.156 41.5382 169.102 41.7273L168.058 45.3772H166.975L168.239 40.9488Z" fill="#ED1D24"/>
<path d="M179.143 44.4998C178.745 45.8928 178.231 46.7462 177.501 47.2713C176.764 47.8243 175.877 48 175.126 48C174.411 48 173.672 47.8233 173.286 47.4969L173.799 46.6579C174.12 46.9075 174.672 47.134 175.408 47.134C176.518 47.134 177.5 46.5456 177.937 45.0134L178.132 44.3356H178.108C177.612 44.9011 176.843 45.3532 175.921 45.3532C174.444 45.3532 173.75 44.0726 174.232 42.3926C174.819 40.3344 176.468 39.1689 177.836 39.1689C178.871 39.1689 179.277 39.72 179.395 40.223H179.418L179.73 39.3062H180.677C180.528 39.7449 180.363 40.2345 180.151 40.9747L179.143 44.4998ZM178.873 41.7014C178.925 41.5133 178.959 41.351 178.953 41.1993C178.938 40.5609 178.561 40.0329 177.773 40.0329C176.738 40.0329 175.745 40.9248 175.343 42.3302C175.003 43.5216 175.31 44.5123 176.48 44.5123C177.144 44.5123 177.873 44.0861 178.305 43.3833C178.422 43.1952 178.507 42.983 178.559 42.7949L178.873 41.7014Z" fill="#ED1D24"/>
</svg>
