<svg width="163" height="54" viewBox="0 0 163 54" fill="none" xmlns="http://www.w3.org/2000/svg">
<path d="M20.024 31.5954C20.024 32.3154 19.976 32.9634 19.88 33.5394H5.29999C5.41999 34.9794 5.92399 36.1074 6.81199 36.9234C7.69999 37.7394 8.79199 38.1474 10.088 38.1474C11.96 38.1474 13.292 37.3434 14.084 35.7354H19.52C18.944 37.6554 17.84 39.2394 16.208 40.4874C14.576 41.7114 12.572 42.3234 10.196 42.3234C8.27599 42.3234 6.54799 41.9034 5.01199 41.0634C3.49999 40.1994 2.31199 38.9874 1.44799 37.4274C0.607988 35.8674 0.187988 34.0674 0.187988 32.0274C0.187988 29.9634 0.607988 28.1514 1.44799 26.5914C2.28799 25.0314 3.46399 23.8314 4.97599 22.9914C6.48799 22.1514 8.22799 21.7314 10.196 21.7314C12.092 21.7314 13.784 22.1394 15.272 22.9554C16.784 23.7714 17.948 24.9354 18.764 26.4474C19.604 27.9354 20.024 29.6514 20.024 31.5954ZM14.804 30.1554C14.78 28.8594 14.312 27.8274 13.4 27.0594C12.488 26.2674 11.372 25.8714 10.052 25.8714C8.80399 25.8714 7.74799 26.2554 6.88399 27.0234C6.04399 27.7674 5.52799 28.8114 5.33599 30.1554H14.804Z" fill="#0971D1"/>
<path d="M28.7427 24.9354C29.3907 24.0234 30.2787 23.2674 31.4067 22.6674C32.5587 22.0434 33.8667 21.7314 35.3307 21.7314C37.0347 21.7314 38.5707 22.1514 39.9387 22.9914C41.3307 23.8314 42.4227 25.0314 43.2147 26.5914C44.0307 28.1274 44.4387 29.9154 44.4387 31.9554C44.4387 33.9954 44.0307 35.8074 43.2147 37.3914C42.4227 38.9514 41.3307 40.1634 39.9387 41.0274C38.5707 41.8914 37.0347 42.3234 35.3307 42.3234C33.8667 42.3234 32.5707 42.0234 31.4427 41.4234C30.3387 40.8234 29.4387 40.0674 28.7427 39.1554V51.5034H23.7027V22.0554H28.7427V24.9354ZM39.2907 31.9554C39.2907 30.7554 39.0387 29.7234 38.5347 28.8594C38.0547 27.9714 37.4067 27.2994 36.5907 26.8434C35.7987 26.3874 34.9347 26.1594 33.9987 26.1594C33.0867 26.1594 32.2227 26.3994 31.4067 26.8794C30.6147 27.3354 29.9667 28.0074 29.4627 28.8954C28.9827 29.7834 28.7427 30.8274 28.7427 32.0274C28.7427 33.2274 28.9827 34.2714 29.4627 35.1594C29.9667 36.0474 30.6147 36.7314 31.4067 37.2114C32.2227 37.6674 33.0867 37.8954 33.9987 37.8954C34.9347 37.8954 35.7987 37.6554 36.5907 37.1754C37.4067 36.6954 38.0547 36.0114 38.5347 35.1234C39.0387 34.2354 39.2907 33.1794 39.2907 31.9554Z" fill="#0971D1"/>
<path d="M50.6572 19.6794C49.7692 19.6794 49.0252 19.4034 48.4252 18.8514C47.8492 18.2754 47.5612 17.5674 47.5612 16.7274C47.5612 15.8874 47.8492 15.1914 48.4252 14.6394C49.0252 14.0634 49.7692 13.7754 50.6572 13.7754C51.5452 13.7754 52.2772 14.0634 52.8532 14.6394C53.4532 15.1914 53.7532 15.8874 53.7532 16.7274C53.7532 17.5674 53.4532 18.2754 52.8532 18.8514C52.2772 19.4034 51.5452 19.6794 50.6572 19.6794ZM53.1412 22.0554V41.9994H48.1012V22.0554H53.1412Z" fill="#0971D1"/>
<path d="M56.8247 32.0274C56.8247 29.9634 57.2447 28.1634 58.0847 26.6274C58.9247 25.0674 60.0887 23.8674 61.5767 23.0274C63.0647 22.1634 64.7687 21.7314 66.6887 21.7314C69.1607 21.7314 71.2007 22.3554 72.8087 23.6034C74.4407 24.8274 75.5327 26.5554 76.0847 28.7874H70.6487C70.3607 27.9234 69.8687 27.2514 69.1727 26.7714C68.5007 26.2674 67.6607 26.0154 66.6527 26.0154C65.2127 26.0154 64.0727 26.5434 63.2327 27.5994C62.3927 28.6314 61.9727 30.1074 61.9727 32.0274C61.9727 33.9234 62.3927 35.3994 63.2327 36.4554C64.0727 37.4874 65.2127 38.0034 66.6527 38.0034C68.6927 38.0034 70.0247 37.0914 70.6487 35.2674H76.0847C75.5327 37.4274 74.4407 39.1434 72.8087 40.4154C71.1767 41.6874 69.1367 42.3234 66.6887 42.3234C64.7687 42.3234 63.0647 41.9034 61.5767 41.0634C60.0887 40.1994 58.9247 38.9994 58.0847 37.4634C57.2447 35.9034 56.8247 34.0914 56.8247 32.0274Z" fill="#0971D1"/>
<path d="M105.09 22.2596C104.782 24.0516 104.082 25.6897 102.99 27.1737C101.926 28.6297 100.484 29.8057 98.664 30.7017C96.844 31.5697 94.73 32.0037 92.322 32.0037H88.248L86.484 41.9997H78.21L83.46 12.3896H95.766C98.874 12.3896 101.24 13.1036 102.864 14.5316C104.488 15.9316 105.3 17.8216 105.3 20.2016C105.3 20.7896 105.23 21.4756 105.09 22.2596ZM92.7 25.4937C95.024 25.4937 96.368 24.4156 96.732 22.2596C96.788 21.8676 96.816 21.5877 96.816 21.4197C96.816 20.6637 96.564 20.0757 96.06 19.6557C95.584 19.2077 94.842 18.9837 93.834 18.9837H90.558L89.424 25.4937H92.7Z" fill="#20D2B2"/>
<path d="M105.667 30.1976C106.115 27.7616 106.941 25.6337 108.145 23.8137C109.349 21.9937 110.791 20.5937 112.471 19.6136C114.179 18.6337 115.971 18.1437 117.847 18.1437C119.471 18.1437 120.815 18.4656 121.879 19.1096C122.943 19.7536 123.685 20.6216 124.105 21.7136L124.693 18.4376H132.925L128.767 41.9997H120.535L121.123 38.7236C120.311 39.8156 119.247 40.6837 117.931 41.3277C116.615 41.9717 115.159 42.2936 113.563 42.2936C111.099 42.2936 109.125 41.4817 107.641 39.8577C106.157 38.2057 105.415 35.9657 105.415 33.1377C105.415 32.2137 105.499 31.2336 105.667 30.1976ZM122.635 30.1976C122.719 29.7776 122.761 29.3857 122.761 29.0217C122.761 27.8457 122.425 26.9357 121.753 26.2917C121.109 25.6477 120.269 25.3257 119.233 25.3257C118.001 25.3257 116.895 25.7596 115.915 26.6276C114.935 27.4676 114.319 28.6576 114.067 30.1976C113.983 30.6176 113.941 31.0237 113.941 31.4157C113.941 32.5917 114.263 33.5017 114.907 34.1457C115.579 34.7897 116.433 35.1117 117.469 35.1117C118.701 35.1117 119.807 34.6777 120.787 33.8097C121.767 32.9417 122.383 31.7376 122.635 30.1976Z" fill="#20D2B2"/>
<path d="M144.252 18.4376L146.814 31.7936L153.954 18.4376H162.984L141.942 53.2137H132.996L140.766 40.9917L135.096 18.4376H144.252Z" fill="#20D2B2"/>
<path d="M5.00001 0C3.20601 0.00220313 1.7522 1.45598 1.75 3.25001V5.25C1.75 5.38807 1.86194 5.50001 2.00001 5.50001H3.00002C3.13809 5.50001 3.25002 5.38807 3.25002 5.25V3.25001C3.25 2.28349 4.03352 1.5 5.00001 1.5C5.9665 1.5 6.75002 2.28349 6.75002 3.25001V5.25C6.75002 5.38807 6.86195 5.50001 7.00003 5.50001H8.00001C8.13808 5.50001 8.25002 5.38807 8.25002 5.25V3.25001C8.24781 1.45598 6.79401 0.00220313 5.00001 0Z" fill="#455A64"/>
<path d="M1.99999 5H7.99999C8.69034 5 9.24998 5.55964 9.24998 6.24999V10.75C9.24998 11.4404 8.69034 12 7.99999 12H1.99999C1.30964 12 0.75 11.4404 0.75 10.75V6.25002C0.75 5.55964 1.30964 5 1.99999 5Z" fill="#FFC107"/>
<path d="M6.25 7.75039C6.2529 7.06004 5.69563 6.49803 5.00528 6.49513C4.31493 6.49222 3.75292 7.0495 3.75001 7.73985C3.748 8.21703 4.01783 8.65372 4.4455 8.86539L4.25249 10.2154C4.23315 10.3521 4.32831 10.4786 4.46502 10.4979C4.4766 10.4996 4.48829 10.5004 4.49999 10.5004H5.5C5.63807 10.5018 5.75113 10.391 5.75251 10.2529C5.75263 10.2402 5.75181 10.2275 5.74998 10.2149L5.55697 8.86489C5.97941 8.65349 6.24725 8.22273 6.25 7.75039Z" fill="#455A64"/>
<path d="M18.2139 8.43652C18.2139 7.99902 18.0589 7.66178 17.749 7.4248C17.4437 7.18783 16.89 6.94857 16.0879 6.70703C15.2858 6.46549 14.6478 6.19661 14.1738 5.90039C13.2669 5.33073 12.8135 4.58789 12.8135 3.67188C12.8135 2.86979 13.1393 2.20898 13.791 1.68945C14.4473 1.16992 15.2972 0.910156 16.3408 0.910156C17.0335 0.910156 17.651 1.03776 18.1934 1.29297C18.7357 1.54818 19.1618 1.91276 19.4717 2.38672C19.7816 2.85612 19.9365 3.37793 19.9365 3.95215H18.2139C18.2139 3.43262 18.0498 3.02702 17.7217 2.73535C17.3981 2.43913 16.9333 2.29102 16.3271 2.29102C15.762 2.29102 15.3223 2.41178 15.0078 2.65332C14.6979 2.89486 14.543 3.2321 14.543 3.66504C14.543 4.02962 14.7116 4.33496 15.0488 4.58105C15.3861 4.82259 15.9421 5.05957 16.7168 5.29199C17.4915 5.51986 18.1136 5.7819 18.583 6.07812C19.0524 6.36979 19.3965 6.70703 19.6152 7.08984C19.834 7.4681 19.9434 7.91243 19.9434 8.42285C19.9434 9.25228 19.6243 9.91309 18.9863 10.4053C18.3529 10.8929 17.4915 11.1367 16.4023 11.1367C15.6823 11.1367 15.0192 11.0046 14.4131 10.7402C13.8115 10.4714 13.3421 10.1022 13.0049 9.63281C12.6722 9.16341 12.5059 8.61654 12.5059 7.99219H14.2354C14.2354 8.55729 14.4222 8.99479 14.7959 9.30469C15.1696 9.61458 15.7051 9.76953 16.4023 9.76953C17.0039 9.76953 17.4551 9.64876 17.7559 9.40723C18.0612 9.16113 18.2139 8.83757 18.2139 8.43652Z" fill="#455A64"/>
<path d="M24.5576 11.1367C23.5049 11.1367 22.6504 10.8063 21.9941 10.1455C21.3424 9.48014 21.0166 8.59603 21.0166 7.49316V7.28809C21.0166 6.5498 21.1579 5.89128 21.4404 5.3125C21.7275 4.72917 22.1286 4.27572 22.6436 3.95215C23.1585 3.62858 23.7327 3.4668 24.3662 3.4668C25.3734 3.4668 26.1504 3.78809 26.6973 4.43066C27.2487 5.07324 27.5244 5.98242 27.5244 7.1582V7.82812H22.6914C22.7415 8.4388 22.9443 8.92188 23.2998 9.27734C23.6598 9.63281 24.111 9.81055 24.6533 9.81055C25.4144 9.81055 26.0342 9.50293 26.5127 8.8877L27.4082 9.74219C27.112 10.1842 26.7155 10.5283 26.2188 10.7744C25.7266 11.016 25.1729 11.1367 24.5576 11.1367ZM24.3594 4.7998C23.9036 4.7998 23.5345 4.95931 23.252 5.27832C22.974 5.59733 22.7962 6.04167 22.7188 6.61133H25.8838V6.48828C25.8473 5.93229 25.6992 5.51302 25.4395 5.23047C25.1797 4.94336 24.8197 4.7998 24.3594 4.7998Z" fill="#455A64"/>
<path d="M31.8584 9.81055C32.2731 9.81055 32.6172 9.68978 32.8906 9.44824C33.1641 9.20671 33.3099 8.9082 33.3281 8.55273H34.8936C34.8753 9.01302 34.7318 9.44368 34.4629 9.84473C34.194 10.2412 33.8294 10.5557 33.3691 10.7881C32.9089 11.0205 32.4121 11.1367 31.8789 11.1367C30.8444 11.1367 30.0241 10.8018 29.418 10.1318C28.8118 9.46191 28.5088 8.53678 28.5088 7.35645V7.18555C28.5088 6.0599 28.8096 5.15983 29.4111 4.48535C30.0127 3.80632 30.833 3.4668 31.8721 3.4668C32.7516 3.4668 33.4671 3.72428 34.0186 4.23926C34.5745 4.74967 34.8662 5.42188 34.8936 6.25586H33.3281C33.3099 5.83203 33.1641 5.4834 32.8906 5.20996C32.6217 4.93652 32.2777 4.7998 31.8584 4.7998C31.3206 4.7998 30.9059 4.99577 30.6143 5.3877C30.3226 5.77507 30.1745 6.36523 30.1699 7.1582V7.4248C30.1699 8.22689 30.3135 8.82617 30.6006 9.22266C30.8923 9.61458 31.3115 9.81055 31.8584 9.81055Z" fill="#455A64"/>
<path d="M40.6289 10.2754C40.1413 10.8496 39.4486 11.1367 38.5508 11.1367C37.7487 11.1367 37.1403 10.902 36.7256 10.4326C36.3154 9.96322 36.1104 9.28418 36.1104 8.39551V3.60352H37.7715V8.375C37.7715 9.3138 38.1611 9.7832 38.9404 9.7832C39.7471 9.7832 40.2917 9.49382 40.5742 8.91504V3.60352H42.2354V11H40.6699L40.6289 10.2754Z" fill="#455A64"/>
<path d="M47.7998 5.12109C47.5811 5.08464 47.3555 5.06641 47.123 5.06641C46.362 5.06641 45.8493 5.35807 45.585 5.94141V11H43.9238V3.60352H45.5098L45.5508 4.43066C45.9518 3.78809 46.5078 3.4668 47.2188 3.4668C47.4557 3.4668 47.6517 3.4987 47.8066 3.5625L47.7998 5.12109Z" fill="#455A64"/>
<path d="M51.9697 11.1367C50.917 11.1367 50.0625 10.8063 49.4062 10.1455C48.7546 9.48014 48.4287 8.59603 48.4287 7.49316V7.28809C48.4287 6.5498 48.57 5.89128 48.8525 5.3125C49.1396 4.72917 49.5407 4.27572 50.0557 3.95215C50.5706 3.62858 51.1449 3.4668 51.7783 3.4668C52.7855 3.4668 53.5625 3.78809 54.1094 4.43066C54.6608 5.07324 54.9365 5.98242 54.9365 7.1582V7.82812H50.1035C50.1536 8.4388 50.3564 8.92188 50.7119 9.27734C51.0719 9.63281 51.5231 9.81055 52.0654 9.81055C52.8265 9.81055 53.4463 9.50293 53.9248 8.8877L54.8203 9.74219C54.5241 10.1842 54.1276 10.5283 53.6309 10.7744C53.1387 11.016 52.585 11.1367 51.9697 11.1367ZM51.7715 4.7998C51.3158 4.7998 50.9466 4.95931 50.6641 5.27832C50.3861 5.59733 50.2083 6.04167 50.1309 6.61133H53.2959V6.48828C53.2594 5.93229 53.1113 5.51302 52.8516 5.23047C52.5918 4.94336 52.2318 4.7998 51.7715 4.7998Z" fill="#455A64"/>
<path d="M55.9209 7.24707C55.9209 6.10775 56.1852 5.19401 56.7139 4.50586C57.2425 3.81315 57.9512 3.4668 58.8398 3.4668C59.6237 3.4668 60.2572 3.74023 60.7402 4.28711V0.5H62.4014V11H60.8975L60.8154 10.2344C60.3187 10.8359 59.6556 11.1367 58.8262 11.1367C57.9603 11.1367 57.2585 10.7881 56.7207 10.0908C56.1875 9.39355 55.9209 8.44564 55.9209 7.24707ZM57.582 7.39062C57.582 8.14258 57.7256 8.73047 58.0127 9.1543C58.3044 9.57357 58.7168 9.7832 59.25 9.7832C59.929 9.7832 60.4258 9.48014 60.7402 8.87402V5.71582C60.4349 5.12337 59.9427 4.82715 59.2637 4.82715C58.7259 4.82715 58.3112 5.04134 58.0195 5.46973C57.7279 5.89355 57.582 6.53385 57.582 7.39062Z" fill="#455A64"/>
<path d="M74.1113 7.37695C74.1113 8.52539 73.8538 9.43913 73.3389 10.1182C72.8285 10.7972 72.1243 11.1367 71.2266 11.1367C70.3607 11.1367 69.6862 10.8245 69.2031 10.2002L69.1211 11H67.6172V0.5H69.2783V4.31445C69.7568 3.74935 70.4017 3.4668 71.2129 3.4668C72.1152 3.4668 72.8239 3.80176 73.3389 4.47168C73.8538 5.1416 74.1113 6.07812 74.1113 7.28125V7.37695ZM72.4502 7.2334C72.4502 6.43132 72.3089 5.82975 72.0264 5.42871C71.7438 5.02767 71.3337 4.82715 70.7959 4.82715C70.0758 4.82715 69.57 5.1416 69.2783 5.77051V8.81934C69.5745 9.46191 70.085 9.7832 70.8096 9.7832C71.3291 9.7832 71.7301 9.58952 72.0127 9.20215C72.2952 8.81478 72.4411 8.22917 72.4502 7.44531V7.2334Z" fill="#455A64"/>
<path d="M78.0146 8.62109L79.5186 3.60352H81.2891L78.3496 12.1211C77.8984 13.3652 77.1328 13.9873 76.0527 13.9873C75.8112 13.9873 75.5446 13.9463 75.2529 13.8643V12.5791L75.5674 12.5996C75.9867 12.5996 76.3011 12.5221 76.5107 12.3672C76.7249 12.2168 76.8936 11.9616 77.0166 11.6016L77.2559 10.9658L74.6582 3.60352H76.4492L78.0146 8.62109Z" fill="#455A64"/>
</svg>
