<svg width="16" height="16" viewBox="0 0 16 16" fill="none" xmlns="http://www.w3.org/2000/svg">
<path d="M8.12065 13.7C8.56248 13.7 8.92065 13.3418 8.92065 12.9C8.92065 12.4582 8.56248 12.1 8.12065 12.1C7.67881 12.1 7.32064 12.4582 7.32064 12.9C7.32064 13.3418 7.67881 13.7 8.12065 13.7Z" fill="white"/>
<path d="M9.85665 8.24001L10.5726 7.504C11.0366 7.04001 11.3207 6.40401 11.3206 5.69999C11.3206 3.93201 9.8886 2.5 8.12063 2.5C6.626 2.5 5.37148 3.52344 5.01928 4.90811C4.91037 5.3363 5.27881 5.70002 5.72063 5.70002C6.16245 5.70002 6.50398 5.32042 6.71605 4.93281C6.98762 4.43644 7.51464 4.10001 8.12063 4.10001C9.00465 4.10001 9.72064 4.81604 9.72064 5.70002C9.72064 6.14001 9.54064 6.54002 9.25264 6.82802L8.25664 7.83602C7.68064 8.416 7.32064 9.21602 7.32064 10.1C7.32064 10.3209 7.49973 10.5 7.72065 10.5H8.12065C8.56248 10.5 8.90357 10.1374 8.98934 9.70401C9.11964 9.04556 9.42846 8.6682 9.85665 8.24001Z" fill="white"/>
</svg>
