<svg width="13" height="7" viewBox="0 0 13 7" fill="none" xmlns="http://www.w3.org/2000/svg">
<g opacity="0.7">
<path fill-rule="evenodd" clip-rule="evenodd" d="M5.58839 6.77398C5.29203 6.47262 5.29203 5.98401 5.58839 5.68265L10.9545 0.226021C11.2509 -0.0753405 11.7314 -0.0753402 12.0277 0.226021C12.3241 0.527383 12.3241 1.01599 12.0277 1.31735L6.66161 6.77398C6.36525 7.07534 5.88475 7.07534 5.58839 6.77398Z" fill="#CCCCCC"/>
<path fill-rule="evenodd" clip-rule="evenodd" d="M6.66161 6.77398C6.36525 7.07534 5.88475 7.07534 5.58839 6.77398L0.222272 1.31735C-0.0740908 1.01599 -0.0740905 0.527383 0.222272 0.226021C0.518634 -0.0753403 0.999133 -0.0753405 1.2955 0.226021L6.66161 5.68265C6.95797 5.98401 6.95797 6.47262 6.66161 6.77398Z" fill="#CCCCCC"/>
</g>
</svg>
