<svg width="13" height="8" viewBox="0 0 13 8" fill="none" xmlns="http://www.w3.org/2000/svg">
<path fill-rule="evenodd" clip-rule="evenodd" d="M5.93053 7.07639C5.61603 6.76157 5.61603 6.25116 5.93053 5.93634L11.6252 0.236111C11.9397 -0.0787039 12.4496 -0.0787036 12.7641 0.236111C13.0786 0.550926 13.0786 1.06134 12.7641 1.37616L7.06947 7.07639C6.75496 7.3912 6.24504 7.3912 5.93053 7.07639Z" fill="#666666"/>
<path fill-rule="evenodd" clip-rule="evenodd" d="M7.06947 7.07639C6.75496 7.3912 6.24504 7.3912 5.93053 7.07639L0.23588 1.37616C-0.0786269 1.06134 -0.0786267 0.550926 0.23588 0.236111C0.550388 -0.0787037 1.0603 -0.0787039 1.37481 0.236111L7.06947 5.93634C7.38397 6.25116 7.38397 6.76157 7.06947 7.07639Z" fill="#666666"/>
</svg>
