<svg width="304" height="216" viewBox="0 0 304 216" fill="none" xmlns="http://www.w3.org/2000/svg">
<g filter="url(#filter0_d)">
<path d="M8 22.0646C8 17.6589 11.5621 14.0824 15.9678 14.0647L96.4901 13.7407C97.0583 13.7384 97.5987 13.4946 97.9764 13.07L101.882 8.67966C102.678 7.78545 104.075 7.78545 104.871 8.67966L108.775 13.0682C109.153 13.4938 109.696 13.7377 110.265 13.7388L287.704 14.0813C292.116 14.0898 295.688 17.669 295.688 22.0813V200C295.688 204.418 292.106 208 287.688 208H16C11.5817 208 8 204.418 8 200V22.0646Z" fill="#F8F8F8"/>
</g>
<path d="M24.0045 38.6131C24.0045 33.8562 27.8607 30 32.6175 30H271.391C276.147 30 280.004 33.8562 280.004 38.6131V182.822C280.004 187.579 276.147 191.435 271.391 191.435H32.6175C27.8607 191.435 24.0045 187.579 24.0045 182.822V38.6131Z" fill="#AAAAAA"/>
<rect x="24" y="44" width="256" height="35" fill="#7C7C7C"/>
<rect x="30" y="87" width="160" height="24" fill="#C4C4C4"/>
<rect x="190" y="91" width="24" height="16" fill="white"/>
<path d="M204.837 97.7083C204.841 96.9781 205.082 96.3902 205.558 95.9443C206.035 95.4985 206.676 95.2474 207.481 95.1911C208.018 95.1536 208.486 95.22 208.887 95.3903C209.295 95.5521 209.609 95.792 209.83 96.1097C210.058 96.4269 210.187 96.7947 210.216 97.2131C210.251 97.7026 210.138 98.1348 209.879 98.51C209.627 98.8845 209.28 99.1388 208.837 99.2729L208.841 99.3321C209.363 99.4226 209.787 99.6428 210.113 99.9929C210.439 100.343 210.623 100.818 210.665 101.418C210.697 101.868 210.622 102.282 210.443 102.659C210.262 103.029 209.974 103.33 209.578 103.564C209.182 103.798 208.695 103.935 208.119 103.976C207.282 104.034 206.58 103.865 206.013 103.469C205.445 103.064 205.102 102.461 204.982 101.661L206.024 101.588C206.113 102.057 206.333 102.431 206.686 102.708C207.038 102.984 207.491 103.103 208.043 103.065C208.596 103.026 209.004 102.855 209.269 102.551C209.54 102.238 209.66 101.853 209.628 101.395C209.587 100.803 209.36 100.391 208.947 100.158C208.534 99.9248 207.929 99.8362 207.131 99.892L206.859 99.911L206.796 99.0111L207.08 98.9912C207.806 98.9325 208.346 98.7758 208.701 98.5209C209.056 98.2581 209.216 97.882 209.182 97.3926C209.153 96.9742 208.991 96.6483 208.697 96.415C208.411 96.1812 208.015 96.0819 207.51 96.1172C207.021 96.1515 206.635 96.3054 206.352 96.579C206.07 96.8526 205.916 97.2044 205.891 97.6346L204.837 97.7083Z" fill="black"/>
<path d="M198.295 103.26C199.241 102.384 199.981 101.67 200.513 101.117C201.045 100.556 201.485 99.9823 201.833 99.3948C202.188 98.7988 202.346 98.2284 202.308 97.6837C202.272 97.1706 202.118 96.7768 201.845 96.5024C201.579 96.2195 201.17 96.0974 200.617 96.1361C200.08 96.1736 199.674 96.3726 199.398 96.733C199.129 97.085 199.002 97.5421 199.017 98.1042L197.975 98.1771C197.945 97.2907 198.166 96.5891 198.637 96.0722C199.109 95.5553 199.743 95.269 200.541 95.2133C201.354 95.1564 202.013 95.3364 202.518 95.7533C203.031 96.1696 203.315 96.7724 203.37 97.5619C203.416 98.2171 203.264 98.8703 202.912 99.5216C202.569 100.164 202.165 100.74 201.7 101.248C201.236 101.749 200.638 102.338 199.908 103.016L203.982 102.731L204.045 103.631L198.349 104.029L198.295 103.26Z" fill="black"/>
<path d="M193.856 96.7651L193.787 95.7822L196.014 95.6266L196.612 104.188L195.523 104.264L194.993 96.6856L193.856 96.7651Z" fill="black"/>
<rect x="180" y="89" width="44" height="20" rx="10" stroke="#FD5A5A" stroke-width="2"/>
<defs>
<filter id="filter0_d" x="0" y="0.00878906" width="303.688" height="215.991" filterUnits="userSpaceOnUse" color-interpolation-filters="sRGB">
<feFlood flood-opacity="0" result="BackgroundImageFix"/>
<feColorMatrix in="SourceAlpha" type="matrix" values="0 0 0 0 0 0 0 0 0 0 0 0 0 0 0 0 0 0 127 0"/>
<feOffset/>
<feGaussianBlur stdDeviation="4"/>
<feColorMatrix type="matrix" values="0 0 0 0 0 0 0 0 0 0 0 0 0 0 0 0 0 0 0.25 0"/>
<feBlend mode="normal" in2="BackgroundImageFix" result="effect1_dropShadow"/>
<feBlend mode="normal" in="SourceGraphic" in2="effect1_dropShadow" result="shape"/>
</filter>
</defs>
</svg>
