<svg width="304" height="216" viewBox="0 0 304 216" fill="none" xmlns="http://www.w3.org/2000/svg">
<g filter="url(#filter0_d)">
<path d="M8 22.0646C8 17.6589 11.5621 14.0824 15.9678 14.0647L96.4901 13.7407C97.0583 13.7384 97.5987 13.4946 97.9764 13.07L101.882 8.67966C102.678 7.78545 104.075 7.78545 104.871 8.67966L108.775 13.0682C109.153 13.4938 109.696 13.7377 110.265 13.7388L287.704 14.0813C292.116 14.0898 295.688 17.669 295.688 22.0813V200C295.688 204.418 292.106 208 287.688 208H16C11.5817 208 8 204.418 8 200V22.0646Z" fill="#F8F8F8"/>
</g>
<path d="M24.0045 38.6131C24.0045 33.8562 27.8607 30 32.6175 30H271.391C276.147 30 280.004 33.8562 280.004 38.6131V182.822C280.004 187.579 276.147 191.435 271.391 191.435H32.6175C27.8607 191.435 24.0045 187.579 24.0045 182.822V38.6131Z" fill="#AAAAAA"/>
<path d="M54.7364 134.936V133.393L60.7655 124.744H63.2418V133.16H64.9105V134.936H63.2418V137.664H61.232V134.936H54.7364ZM61.3218 126.826L57.087 133.16H61.3218V126.826Z" fill="white"/>
<path d="M66.3364 126.449V124.583H70.0687V137.664H68.0051V126.449H66.3364Z" fill="white"/>
<path d="M74.0093 134.883C75.1577 133.89 76.0609 133.076 76.7189 132.442C77.3888 131.796 77.945 131.126 78.3876 130.432C78.8302 129.739 79.0516 129.045 79.0516 128.351C79.0516 127.633 78.8781 127.071 78.5312 126.664C78.1962 126.258 77.6639 126.054 76.9342 126.054C76.2284 126.054 75.6781 126.281 75.2833 126.736C74.9005 127.179 74.6972 127.777 74.6733 128.53H72.6994C72.7353 127.167 73.142 126.126 73.9196 125.408C74.7091 124.678 75.708 124.314 76.9162 124.314C78.2202 124.314 79.237 124.672 79.9667 125.39C80.7084 126.108 81.0792 127.065 81.0792 128.261C81.0792 129.123 80.8579 129.954 80.4153 130.755C79.9846 131.545 79.4643 132.257 78.8542 132.891C78.256 133.513 77.4904 134.237 76.5574 135.062L75.7499 135.78H81.4381V137.484H72.7174V135.995L74.0093 134.883Z" fill="white"/>
<path d="M83.1993 127.813C83.271 126.7 83.6957 125.833 84.4733 125.211C85.2628 124.589 86.2677 124.278 87.4878 124.278C88.3252 124.278 89.049 124.427 89.659 124.726C90.2691 125.025 90.7297 125.432 91.0407 125.946C91.3517 126.461 91.5073 127.041 91.5073 127.687C91.5073 128.429 91.3099 129.063 90.9151 129.589C90.5203 130.115 90.0478 130.468 89.4976 130.648V130.72C90.2033 130.935 90.7536 131.33 91.1484 131.904C91.5432 132.466 91.7405 133.19 91.7405 134.075C91.7405 134.781 91.579 135.409 91.256 135.959C90.9331 136.509 90.4546 136.946 89.8205 137.269C89.1865 137.58 88.4269 137.736 87.5417 137.736C86.2497 137.736 85.185 137.407 84.3477 136.749C83.5222 136.079 83.0796 135.122 83.0198 133.878H84.9936C85.0415 134.512 85.2867 135.032 85.7293 135.439C86.172 135.834 86.7701 136.031 87.5237 136.031C88.2534 136.031 88.8157 135.834 89.2104 135.439C89.6052 135.032 89.8026 134.512 89.8026 133.878C89.8026 133.04 89.5334 132.448 88.9951 132.101C88.4688 131.742 87.6553 131.563 86.5548 131.563H86.0882V129.876H86.5727C87.5417 129.864 88.2774 129.703 88.7798 129.392C89.2942 129.081 89.5514 128.59 89.5514 127.92C89.5514 127.346 89.366 126.892 88.9951 126.557C88.6243 126.21 88.0979 126.036 87.4161 126.036C86.7462 126.036 86.2258 126.21 85.8549 126.557C85.4841 126.892 85.2628 127.31 85.191 127.813H83.1993Z" fill="white"/>
<path d="M102.96 134.936V133.393L108.99 124.744H111.466V133.16H113.135V134.936H111.466V137.664H109.456V134.936H102.96ZM109.546 126.826L105.311 133.16H109.546V126.826Z" fill="white"/>
<path d="M123.263 126.341H117.252V129.912C117.503 129.577 117.874 129.296 118.365 129.069C118.867 128.841 119.399 128.728 119.962 128.728C120.966 128.728 121.78 128.943 122.402 129.374C123.036 129.804 123.485 130.349 123.748 131.007C124.023 131.665 124.16 132.358 124.16 133.088C124.16 133.973 123.987 134.763 123.64 135.457C123.305 136.139 122.797 136.677 122.115 137.072C121.445 137.466 120.62 137.664 119.639 137.664C118.335 137.664 117.288 137.341 116.498 136.695C115.709 136.049 115.236 135.194 115.081 134.129H117.073C117.204 134.691 117.497 135.14 117.952 135.475C118.406 135.798 118.975 135.959 119.657 135.959C120.506 135.959 121.14 135.702 121.559 135.188C121.989 134.673 122.205 133.991 122.205 133.142C122.205 132.281 121.989 131.623 121.559 131.168C121.128 130.702 120.494 130.468 119.657 130.468C119.07 130.468 118.574 130.618 118.167 130.917C117.772 131.204 117.485 131.599 117.306 132.101H115.368V124.547H123.263V126.341Z" fill="white"/>
<path d="M133.324 127.615C133.192 127.065 132.953 126.652 132.606 126.377C132.259 126.102 131.775 125.964 131.153 125.964C130.208 125.964 129.502 126.329 129.035 127.059C128.569 127.777 128.324 128.973 128.3 130.648C128.611 130.121 129.065 129.715 129.663 129.428C130.261 129.14 130.907 128.997 131.601 128.997C132.391 128.997 133.085 129.17 133.683 129.517C134.293 129.852 134.765 130.343 135.1 130.989C135.447 131.635 135.621 132.406 135.621 133.303C135.621 134.141 135.453 134.889 135.118 135.546C134.795 136.204 134.311 136.725 133.665 137.108C133.019 137.478 132.241 137.664 131.332 137.664C130.1 137.664 129.131 137.395 128.425 136.856C127.731 136.306 127.241 135.534 126.954 134.542C126.679 133.549 126.541 132.311 126.541 130.827C126.541 126.449 128.084 124.26 131.171 124.26C132.367 124.26 133.306 124.583 133.988 125.229C134.682 125.875 135.088 126.67 135.208 127.615H133.324ZM131.153 130.72C130.423 130.72 129.801 130.941 129.287 131.383C128.784 131.814 128.533 132.442 128.533 133.268C128.533 134.093 128.766 134.751 129.233 135.241C129.711 135.72 130.375 135.959 131.224 135.959C131.978 135.959 132.57 135.726 133.001 135.259C133.444 134.793 133.665 134.171 133.665 133.393C133.665 132.58 133.45 131.934 133.019 131.455C132.6 130.965 131.978 130.72 131.153 130.72Z" fill="white"/>
<path d="M146.093 126.162L141.104 137.664H139.041L144.083 126.377H137.444V124.637H146.093V126.162Z" fill="white"/>
<path d="M159.373 130.827C158.129 130.205 157.507 129.224 157.507 127.884C157.507 127.238 157.668 126.646 157.991 126.108C158.314 125.57 158.799 125.145 159.445 124.834C160.091 124.511 160.88 124.349 161.813 124.349C162.735 124.349 163.518 124.511 164.164 124.834C164.822 125.145 165.312 125.57 165.635 126.108C165.958 126.646 166.12 127.238 166.12 127.884C166.12 128.554 165.946 129.146 165.6 129.661C165.265 130.163 164.816 130.552 164.254 130.827C164.936 131.078 165.474 131.491 165.869 132.065C166.263 132.628 166.461 133.292 166.461 134.057C166.461 134.835 166.263 135.523 165.869 136.121C165.474 136.719 164.924 137.179 164.218 137.502C163.512 137.825 162.711 137.987 161.813 137.987C160.916 137.987 160.115 137.825 159.409 137.502C158.715 137.179 158.171 136.719 157.776 136.121C157.381 135.523 157.184 134.835 157.184 134.057C157.184 133.28 157.381 132.61 157.776 132.047C158.171 131.485 158.703 131.078 159.373 130.827ZM164.164 128.136C164.164 127.466 163.955 126.951 163.536 126.592C163.117 126.234 162.543 126.054 161.813 126.054C161.096 126.054 160.527 126.234 160.109 126.592C159.69 126.951 159.481 127.472 159.481 128.154C159.481 128.752 159.696 129.242 160.127 129.625C160.569 129.996 161.132 130.181 161.813 130.181C162.495 130.181 163.058 129.99 163.5 129.607C163.943 129.224 164.164 128.734 164.164 128.136ZM161.813 131.724C161.024 131.724 160.378 131.922 159.875 132.317C159.385 132.699 159.14 133.256 159.14 133.985C159.14 134.667 159.379 135.223 159.858 135.654C160.336 136.073 160.988 136.282 161.813 136.282C162.627 136.282 163.267 136.067 163.733 135.636C164.212 135.206 164.451 134.655 164.451 133.985C164.451 133.268 164.206 132.711 163.715 132.317C163.237 131.922 162.603 131.724 161.813 131.724Z" fill="white"/>
<path d="M171.157 134.111C171.276 134.709 171.534 135.164 171.928 135.475C172.323 135.786 172.855 135.941 173.525 135.941C174.375 135.941 174.997 135.606 175.391 134.936C175.786 134.266 175.984 133.124 175.984 131.509C175.697 131.916 175.29 132.233 174.763 132.46C174.249 132.675 173.687 132.783 173.077 132.783C172.299 132.783 171.593 132.628 170.959 132.317C170.325 131.994 169.823 131.521 169.452 130.899C169.093 130.265 168.914 129.499 168.914 128.602C168.914 127.286 169.297 126.24 170.062 125.462C170.84 124.672 171.904 124.278 173.256 124.278C174.883 124.278 176.037 124.822 176.719 125.911C177.413 126.987 177.76 128.644 177.76 130.881C177.76 132.424 177.628 133.686 177.365 134.667C177.114 135.648 176.671 136.39 176.037 136.892C175.403 137.395 174.524 137.646 173.4 137.646C172.12 137.646 171.133 137.311 170.439 136.641C169.745 135.971 169.356 135.128 169.273 134.111H171.157ZM173.436 131.06C174.153 131.06 174.716 130.839 175.122 130.397C175.541 129.942 175.75 129.344 175.75 128.602C175.75 127.777 175.529 127.137 175.086 126.682C174.656 126.216 174.064 125.982 173.31 125.982C172.556 125.982 171.958 126.222 171.516 126.7C171.085 127.167 170.87 127.783 170.87 128.548C170.87 129.278 171.079 129.882 171.498 130.361C171.928 130.827 172.574 131.06 173.436 131.06Z" fill="white"/>
<path d="M179.73 126.449V124.583H183.462V137.664H181.398V126.449H179.73Z" fill="white"/>
<path d="M187.403 134.883C188.551 133.89 189.454 133.076 190.112 132.442C190.782 131.796 191.338 131.126 191.781 130.432C192.224 129.739 192.445 129.045 192.445 128.351C192.445 127.633 192.271 127.071 191.924 126.664C191.59 126.258 191.057 126.054 190.327 126.054C189.622 126.054 189.071 126.281 188.677 126.736C188.294 127.179 188.09 127.777 188.067 128.53H186.093C186.129 127.167 186.535 126.126 187.313 125.408C188.102 124.678 189.101 124.314 190.31 124.314C191.613 124.314 192.63 124.672 193.36 125.39C194.102 126.108 194.473 127.065 194.473 128.261C194.473 129.123 194.251 129.954 193.809 130.755C193.378 131.545 192.858 132.257 192.247 132.891C191.649 133.513 190.884 134.237 189.951 135.062L189.143 135.78H194.831V137.484H186.111V135.995L187.403 134.883Z" fill="white"/>
<path d="M205.915 127.813C205.987 126.7 206.411 125.833 207.189 125.211C207.978 124.589 208.983 124.278 210.204 124.278C211.041 124.278 211.765 124.427 212.375 124.726C212.985 125.025 213.445 125.432 213.756 125.946C214.067 126.461 214.223 127.041 214.223 127.687C214.223 128.429 214.026 129.063 213.631 129.589C213.236 130.115 212.764 130.468 212.213 130.648V130.72C212.919 130.935 213.469 131.33 213.864 131.904C214.259 132.466 214.456 133.19 214.456 134.075C214.456 134.781 214.295 135.409 213.972 135.959C213.649 136.509 213.17 136.946 212.536 137.269C211.902 137.58 211.143 137.736 210.257 137.736C208.965 137.736 207.901 137.407 207.063 136.749C206.238 136.079 205.795 135.122 205.736 133.878H207.709C207.757 134.512 208.002 135.032 208.445 135.439C208.888 135.834 209.486 136.031 210.239 136.031C210.969 136.031 211.531 135.834 211.926 135.439C212.321 135.032 212.518 134.512 212.518 133.878C212.518 133.04 212.249 132.448 211.711 132.101C211.184 131.742 210.371 131.563 209.27 131.563H208.804V129.876H209.288C210.257 129.864 210.993 129.703 211.495 129.392C212.01 129.081 212.267 128.59 212.267 127.92C212.267 127.346 212.082 126.892 211.711 126.557C211.34 126.21 210.814 126.036 210.132 126.036C209.462 126.036 208.941 126.21 208.571 126.557C208.2 126.892 207.979 127.31 207.907 127.813H205.915Z" fill="white"/>
<path d="M216.354 134.936V133.393L222.383 124.744H224.859V133.16H226.528V134.936H224.859V137.664H222.849V134.936H216.354ZM222.939 126.826L218.704 133.16H222.939V126.826Z" fill="white"/>
<path d="M236.657 126.341H230.645V129.912C230.897 129.577 231.267 129.296 231.758 129.069C232.26 128.841 232.793 128.728 233.355 128.728C234.36 128.728 235.173 128.943 235.795 129.374C236.429 129.804 236.878 130.349 237.141 131.007C237.416 131.665 237.554 132.358 237.554 133.088C237.554 133.973 237.38 134.763 237.033 135.457C236.698 136.139 236.19 136.677 235.508 137.072C234.838 137.466 234.013 137.664 233.032 137.664C231.728 137.664 230.681 137.341 229.892 136.695C229.102 136.049 228.63 135.194 228.474 134.129H230.466C230.598 134.691 230.891 135.14 231.345 135.475C231.8 135.798 232.368 135.959 233.05 135.959C233.899 135.959 234.533 135.702 234.952 135.188C235.383 134.673 235.598 133.991 235.598 133.142C235.598 132.281 235.383 131.623 234.952 131.168C234.521 130.702 233.887 130.468 233.05 130.468C232.464 130.468 231.967 130.618 231.561 130.917C231.166 131.204 230.879 131.599 230.699 132.101H228.761V124.547H236.657V126.341Z" fill="white"/>
<path d="M246.717 127.615C246.586 127.065 246.346 126.652 245.999 126.377C245.653 126.102 245.168 125.964 244.546 125.964C243.601 125.964 242.895 126.329 242.429 127.059C241.962 127.777 241.717 128.973 241.693 130.648C242.004 130.121 242.459 129.715 243.057 129.428C243.655 129.14 244.301 128.997 244.995 128.997C245.784 128.997 246.478 129.17 247.076 129.517C247.686 129.852 248.159 130.343 248.494 130.989C248.841 131.635 249.014 132.406 249.014 133.303C249.014 134.141 248.847 134.889 248.512 135.546C248.189 136.204 247.704 136.725 247.058 137.108C246.412 137.478 245.635 137.664 244.725 137.664C243.493 137.664 242.524 137.395 241.819 136.856C241.125 136.306 240.634 135.534 240.347 134.542C240.072 133.549 239.934 132.311 239.934 130.827C239.934 126.449 241.478 124.26 244.564 124.26C245.76 124.26 246.699 124.583 247.381 125.229C248.075 125.875 248.482 126.67 248.601 127.615H246.717ZM244.546 130.72C243.816 130.72 243.194 130.941 242.68 131.383C242.177 131.814 241.926 132.442 241.926 133.268C241.926 134.093 242.159 134.751 242.626 135.241C243.105 135.72 243.768 135.959 244.618 135.959C245.371 135.959 245.964 135.726 246.394 135.259C246.837 134.793 247.058 134.171 247.058 133.393C247.058 132.58 246.843 131.934 246.412 131.455C245.993 130.965 245.371 130.72 244.546 130.72Z" fill="white"/>
<path d="M42.7558 169.14V176.632C42.7558 177.559 42.4717 178.291 41.9035 178.83C41.3452 179.368 40.6075 179.637 39.6904 179.637C38.7733 179.637 38.0306 179.368 37.4624 178.83C36.9041 178.291 36.625 177.559 36.625 176.632H38.3446C38.3546 177.09 38.4692 177.454 38.6885 177.723C38.9178 177.992 39.2518 178.127 39.6904 178.127C40.129 178.127 40.463 177.992 40.6923 177.723C40.9216 177.444 41.0362 177.08 41.0362 176.632V169.14H42.7558Z" fill="white"/>
<path d="M49.1028 179.667C48.3252 179.667 47.6224 179.493 46.9944 179.144C46.3663 178.785 45.8729 178.286 45.514 177.648C45.1551 177 44.9757 176.253 44.9757 175.405C44.9757 174.568 45.1601 173.825 45.5289 173.177C45.8978 172.529 46.4012 172.031 47.0392 171.682C47.6772 171.333 48.39 171.159 49.1775 171.159C49.9651 171.159 50.6778 171.333 51.3158 171.682C51.9538 172.031 52.4573 172.529 52.8261 173.177C53.195 173.825 53.3794 174.568 53.3794 175.405C53.3794 176.243 53.19 176.985 52.8112 177.633C52.4323 178.281 51.914 178.785 51.256 179.144C50.6081 179.493 49.8903 179.667 49.1028 179.667ZM49.1028 178.187C49.5414 178.187 49.9501 178.082 50.3289 177.873C50.7177 177.663 51.0317 177.349 51.271 176.931C51.5102 176.512 51.6299 176.003 51.6299 175.405C51.6299 174.807 51.5152 174.304 51.2859 173.895C51.0566 173.476 50.7526 173.162 50.3738 172.953C49.995 172.744 49.5862 172.639 49.1476 172.639C48.709 172.639 48.3003 172.744 47.9215 172.953C47.5526 173.162 47.2585 173.476 47.0392 173.895C46.8199 174.304 46.7102 174.807 46.7102 175.405C46.7102 176.293 46.9345 176.98 47.3831 177.469C47.8417 177.947 48.4149 178.187 49.1028 178.187Z" fill="white"/>
<path d="M62.6159 175.211C62.6159 175.52 62.596 175.799 62.5561 176.048H56.2608C56.3106 176.706 56.5549 177.235 56.9935 177.633C57.4321 178.032 57.9704 178.232 58.6085 178.232C59.5256 178.232 60.1736 177.848 60.5524 177.08H62.3916C62.1424 177.838 61.6888 178.461 61.0309 178.949C60.3829 179.428 59.5754 179.667 58.6085 179.667C57.8209 179.667 57.1131 179.493 56.4851 179.144C55.867 178.785 55.3786 178.286 55.0197 177.648C54.6708 177 54.4963 176.253 54.4963 175.405C54.4963 174.558 54.6658 173.815 55.0047 173.177C55.3536 172.529 55.8371 172.031 56.4552 171.682C57.0832 171.333 57.801 171.159 58.6085 171.159C59.386 171.159 60.0789 171.328 60.687 171.667C61.295 172.006 61.7686 172.484 62.1075 173.103C62.4464 173.711 62.6159 174.413 62.6159 175.211ZM60.8365 174.673C60.8265 174.045 60.6022 173.541 60.1636 173.162C59.725 172.784 59.1817 172.594 58.5337 172.594C57.9455 172.594 57.4421 172.784 57.0234 173.162C56.6047 173.531 56.3555 174.035 56.2758 174.673H60.8365Z" fill="white"/>
<path d="M71.5722 169.14C72.6787 169.14 73.6457 169.354 74.4731 169.783C75.3105 170.202 75.9535 170.81 76.4021 171.607C76.8606 172.395 77.0899 173.317 77.0899 174.374C77.0899 175.43 76.8606 176.347 76.4021 177.125C75.9535 177.903 75.3105 178.501 74.4731 178.919C73.6457 179.328 72.6787 179.532 71.5722 179.532H68.1778V169.14H71.5722ZM71.5722 178.142C72.7884 178.142 73.7205 177.813 74.3684 177.155C75.0164 176.497 75.3404 175.57 75.3404 174.374C75.3404 173.167 75.0164 172.225 74.3684 171.547C73.7205 170.87 72.7884 170.531 71.5722 170.531H69.8825V178.142H71.5722Z" fill="white"/>
<path d="M86.088 179.637C85.3902 179.637 84.7622 179.517 84.2039 179.278C83.6457 179.029 83.207 178.68 82.888 178.232C82.569 177.783 82.4095 177.26 82.4095 176.661H84.2338C84.2737 177.11 84.4482 177.479 84.7572 177.768C85.0762 178.057 85.5198 178.202 86.088 178.202C86.6762 178.202 87.1348 178.062 87.4637 177.783C87.7927 177.494 87.9572 177.125 87.9572 176.676C87.9572 176.327 87.8525 176.043 87.6432 175.824C87.4438 175.605 87.1896 175.435 86.8806 175.316C86.5815 175.196 86.1628 175.066 85.6245 174.927C84.9466 174.747 84.3933 174.568 83.9647 174.389C83.546 174.199 83.1871 173.91 82.888 173.521C82.589 173.132 82.4394 172.614 82.4394 171.966C82.4394 171.368 82.589 170.845 82.888 170.396C83.1871 169.947 83.6058 169.604 84.1441 169.364C84.6824 169.125 85.3055 169.005 86.0133 169.005C87.0201 169.005 87.8425 169.26 88.4805 169.768C89.1285 170.266 89.4874 170.954 89.5572 171.832H87.6731C87.6432 171.453 87.4637 171.129 87.1348 170.86C86.8058 170.59 86.3721 170.456 85.8338 170.456C85.3454 170.456 84.9466 170.58 84.6376 170.83C84.3285 171.079 84.174 171.438 84.174 171.906C84.174 172.225 84.2687 172.489 84.4581 172.699C84.6575 172.898 84.9067 173.058 85.2058 173.177C85.5049 173.297 85.9136 173.427 86.432 173.566C87.1198 173.756 87.6781 173.945 88.1067 174.134C88.5453 174.324 88.9142 174.618 89.2133 175.017C89.5223 175.405 89.6768 175.929 89.6768 176.587C89.6768 177.115 89.5323 177.613 89.2432 178.082C88.964 178.551 88.5503 178.929 88.002 179.218C87.4637 179.498 86.8257 179.637 86.088 179.637Z" fill="white"/>
<path d="M135.197 154.112V152.868H137.685V161.589H136.309V154.112H135.197Z" fill="white"/>
<path d="M139.558 157.115C139.558 155.735 139.79 154.658 140.252 153.885C140.723 153.103 141.528 152.712 142.669 152.712C143.809 152.712 144.61 153.103 145.073 153.885C145.544 154.658 145.779 155.735 145.779 157.115C145.779 158.51 145.544 159.603 145.073 160.392C144.61 161.174 143.809 161.565 142.669 161.565C141.528 161.565 140.723 161.174 140.252 160.392C139.79 159.603 139.558 158.51 139.558 157.115ZM144.439 157.115C144.439 156.469 144.395 155.922 144.307 155.476C144.228 155.029 144.06 154.666 143.805 154.387C143.55 154.1 143.171 153.956 142.669 153.956C142.166 153.956 141.787 154.1 141.532 154.387C141.277 154.666 141.105 155.029 141.018 155.476C140.938 155.922 140.898 156.469 140.898 157.115C140.898 157.784 140.938 158.347 141.018 158.801C141.097 159.256 141.265 159.623 141.52 159.902C141.783 160.181 142.166 160.321 142.669 160.321C143.171 160.321 143.55 160.181 143.805 159.902C144.068 159.623 144.24 159.256 144.319 158.801C144.399 158.347 144.439 157.784 144.439 157.115Z" fill="white"/>
<path d="M151.827 150.296L148.574 163.682H147.234L150.476 150.296H151.827Z" fill="white"/>
<path d="M154.12 159.734C154.886 159.072 155.488 158.53 155.927 158.107C156.373 157.677 156.744 157.23 157.039 156.768C157.334 156.305 157.482 155.843 157.482 155.38C157.482 154.901 157.366 154.527 157.135 154.256C156.912 153.984 156.557 153.849 156.07 153.849C155.6 153.849 155.233 154 154.97 154.303C154.714 154.598 154.579 154.997 154.563 155.5H153.247C153.271 154.59 153.542 153.897 154.06 153.418C154.587 152.932 155.253 152.688 156.058 152.688C156.927 152.688 157.605 152.928 158.092 153.406C158.586 153.885 158.833 154.523 158.833 155.32C158.833 155.894 158.686 156.449 158.391 156.983C158.104 157.509 157.757 157.984 157.35 158.407C156.951 158.821 156.441 159.304 155.819 159.854L155.281 160.333H159.073V161.469H153.259V160.476L154.12 159.734Z" fill="white"/>
<path d="M161.024 159.734C161.79 159.072 162.392 158.53 162.831 158.107C163.277 157.677 163.648 157.23 163.943 156.768C164.238 156.305 164.386 155.843 164.386 155.38C164.386 154.901 164.27 154.527 164.039 154.256C163.816 153.984 163.461 153.849 162.974 153.849C162.504 153.849 162.137 154 161.874 154.303C161.619 154.598 161.483 154.997 161.467 155.5H160.151C160.175 154.59 160.446 153.897 160.965 153.418C161.491 152.932 162.157 152.688 162.962 152.688C163.832 152.688 164.51 152.928 164.996 153.406C165.49 153.885 165.738 154.523 165.738 155.32C165.738 155.894 165.59 156.449 165.295 156.983C165.008 157.509 164.661 157.984 164.254 158.407C163.856 158.821 163.345 159.304 162.723 159.854L162.185 160.333H165.977V161.469H160.163V160.476L161.024 159.734Z" fill="white"/>
<path d="M118.8 153.45L117.46 157.103H116.57L115.23 153.45H116.015L117.02 156.355L118.02 153.45H118.8Z" fill="#666666"/>
<path d="M121.479 156.407H120.024L119.783 157.103H119.014L120.328 153.445H121.181L122.494 157.103H121.72L121.479 156.407ZM121.28 155.821L120.752 154.293L120.223 155.821H121.28Z" fill="#666666"/>
<path d="M123.718 156.522H124.922V157.103H122.985V153.45H123.718V156.522Z" fill="#666666"/>
<path d="M126.12 153.45V157.103H125.387V153.45H126.12Z" fill="#666666"/>
<path d="M128.121 153.45C128.505 153.45 128.842 153.525 129.131 153.675C129.424 153.825 129.649 154.04 129.806 154.319C129.967 154.594 130.047 154.915 130.047 155.282C130.047 155.648 129.967 155.969 129.806 156.245C129.649 156.517 129.424 156.728 129.131 156.878C128.842 157.028 128.505 157.103 128.121 157.103H126.844V153.45H128.121ZM128.095 156.48C128.479 156.48 128.775 156.376 128.985 156.166C129.194 155.957 129.299 155.662 129.299 155.282C129.299 154.902 129.194 154.605 128.985 154.392C128.775 154.176 128.479 154.068 128.095 154.068H127.577V156.48H128.095Z" fill="#666666"/>
<path d="M118.656 159.431V160.023H117.682V163.084H116.95V160.023H115.976V159.431H118.656Z" fill="#666666"/>
<path d="M122.221 159.431V163.084H121.488V161.53H119.923V163.084H119.19V159.431H119.923V160.933H121.488V159.431H122.221Z" fill="#666666"/>
<path d="M124.826 163.084L124.02 161.661H123.675V163.084H122.942V159.431H124.313C124.596 159.431 124.836 159.482 125.035 159.583C125.234 159.681 125.383 159.815 125.48 159.986C125.581 160.154 125.632 160.342 125.632 160.551C125.632 160.792 125.562 161.01 125.423 161.206C125.283 161.397 125.075 161.53 124.8 161.603L125.674 163.084H124.826ZM123.675 161.111H124.287C124.486 161.111 124.634 161.064 124.732 160.97C124.829 160.872 124.878 160.738 124.878 160.567C124.878 160.4 124.829 160.27 124.732 160.18C124.634 160.086 124.486 160.038 124.287 160.038H123.675V161.111Z" fill="#666666"/>
<path d="M127.017 159.431V161.692C127.017 161.94 127.081 162.13 127.211 162.263C127.34 162.392 127.521 162.456 127.755 162.456C127.992 162.456 128.175 162.392 128.304 162.263C128.434 162.13 128.498 161.94 128.498 161.692V159.431H129.236V161.687C129.236 161.998 129.168 162.261 129.032 162.477C128.899 162.69 128.72 162.851 128.493 162.959C128.27 163.067 128.02 163.121 127.744 163.121C127.472 163.121 127.225 163.067 127.001 162.959C126.781 162.851 126.607 162.69 126.478 162.477C126.349 162.261 126.284 161.998 126.284 161.687V159.431H127.017Z" fill="#666666"/>
<path d="M138.252 145V148.131H137.624V146.094L136.785 148.131H136.309L135.466 146.094V148.131H134.838V145H135.551L136.547 147.328L137.543 145H138.252Z" fill="#666666"/>
<path d="M140.326 148.162C140.033 148.162 139.764 148.094 139.519 147.956C139.273 147.819 139.079 147.629 138.935 147.386C138.792 147.141 138.72 146.864 138.72 146.556C138.72 146.251 138.792 145.978 138.935 145.736C139.079 145.49 139.273 145.299 139.519 145.161C139.764 145.024 140.033 144.955 140.326 144.955C140.622 144.955 140.891 145.024 141.133 145.161C141.379 145.299 141.572 145.49 141.712 145.736C141.856 145.978 141.927 146.251 141.927 146.556C141.927 146.864 141.856 147.141 141.712 147.386C141.572 147.629 141.379 147.819 141.133 147.956C140.888 148.094 140.619 148.162 140.326 148.162ZM140.326 147.602C140.514 147.602 140.68 147.56 140.824 147.476C140.967 147.389 141.08 147.267 141.16 147.108C141.241 146.95 141.282 146.766 141.282 146.556C141.282 146.347 141.241 146.165 141.16 146.009C141.08 145.851 140.967 145.73 140.824 145.646C140.68 145.562 140.514 145.52 140.326 145.52C140.138 145.52 139.97 145.562 139.824 145.646C139.68 145.73 139.568 145.851 139.487 146.009C139.406 146.165 139.366 146.347 139.366 146.556C139.366 146.766 139.406 146.95 139.487 147.108C139.568 147.267 139.68 147.389 139.824 147.476C139.97 147.56 140.138 147.602 140.326 147.602Z" fill="#666666"/>
<path d="M145.073 148.131H144.445L143.023 145.982V148.131H142.395V144.995H143.023L144.445 147.149V144.995H145.073V148.131Z" fill="#666666"/>
<path d="M147.824 145V145.507H146.99V148.131H146.362V145.507H145.528V145H147.824Z" fill="#666666"/>
<path d="M150.88 145V148.131H150.252V146.799H148.911V148.131H148.283V145H148.911V146.287H150.252V145H150.88Z" fill="#666666"/>
<path d="M153.18 143.883L151.969 148.943H151.355L152.566 143.883H153.18Z" fill="#666666"/>
<path d="M156.169 145L155.111 147.041V148.131H154.483V147.041L153.42 145H154.128L154.801 146.431L155.47 145H156.169Z" fill="#666666"/>
<path d="M157.16 145.507V146.292H158.214V146.79H157.16V147.62H158.348V148.131H156.532V144.995H158.348V145.507H157.16Z" fill="#666666"/>
<path d="M160.839 147.534H159.592L159.386 148.131H158.726L159.852 144.995H160.584L161.709 148.131H161.046L160.839 147.534ZM160.669 147.032L160.216 145.722L159.763 147.032H160.669Z" fill="#666666"/>
<path d="M163.745 148.131L163.054 146.911H162.758V148.131H162.13V145H163.306C163.548 145 163.754 145.043 163.925 145.13C164.095 145.214 164.222 145.329 164.306 145.475C164.393 145.619 164.436 145.78 164.436 145.96C164.436 146.166 164.376 146.353 164.257 146.521C164.137 146.685 163.959 146.799 163.723 146.861L164.472 148.131H163.745ZM162.758 146.44H163.283C163.454 146.44 163.581 146.399 163.665 146.319C163.748 146.235 163.79 146.12 163.79 145.973C163.79 145.83 163.748 145.719 163.665 145.641C163.581 145.561 163.454 145.52 163.283 145.52H162.758V146.44Z" fill="#666666"/>
<path d="M67.3689 92.8037H76.3408C77.9925 92.8037 79.3314 94.1427 79.3314 95.7944V98.785H67.3689V92.8037Z" fill="white"/>
<path d="M67.3689 100.28H79.3314V106.262H67.3689V100.28Z" fill="white"/>
<path d="M67.3689 107.757H79.3314V110.747C79.3314 112.399 77.9925 113.738 76.3408 113.738H67.3689V107.757Z" fill="white"/>
<path d="M53.9109 100.28H65.8735V106.262H53.9109V100.28Z" fill="white"/>
<path d="M53.9109 107.757H65.8735V113.738H56.9016C55.2499 113.738 53.9109 112.399 53.9109 110.747V107.757Z" fill="white"/>
<path d="M53.9109 95.7944C53.9109 94.1427 55.2499 92.8037 56.9016 92.8037H65.8735V98.785H53.9109V95.7944Z" fill="white"/>
<rect x="105" y="142" width="79" height="25" rx="12.5" stroke="#FD5A5A" stroke-width="2"/>
<defs>
<filter id="filter0_d" x="0" y="0.00878906" width="303.688" height="215.991" filterUnits="userSpaceOnUse" color-interpolation-filters="sRGB">
<feFlood flood-opacity="0" result="BackgroundImageFix"/>
<feColorMatrix in="SourceAlpha" type="matrix" values="0 0 0 0 0 0 0 0 0 0 0 0 0 0 0 0 0 0 127 0"/>
<feOffset/>
<feGaussianBlur stdDeviation="4"/>
<feColorMatrix type="matrix" values="0 0 0 0 0 0 0 0 0 0 0 0 0 0 0 0 0 0 0.25 0"/>
<feBlend mode="normal" in2="BackgroundImageFix" result="effect1_dropShadow"/>
<feBlend mode="normal" in="SourceGraphic" in2="effect1_dropShadow" result="shape"/>
</filter>
</defs>
</svg>
