<?xml version="1.0" encoding="iso-8859-1"?>
<!-- Generator: Adobe Illustrator 19.0.0, SVG Export Plug-In . SVG Version: 6.00 Build 0)  -->
<svg version="1.1" id="Layer_1" xmlns="http://www.w3.org/2000/svg" xmlns:xlink="http://www.w3.org/1999/xlink" x="0px" y="0px"
	 viewBox="0 0 512 512" style="enable-background:new 0 0 512 512;" xml:space="preserve">
<path style="fill:#F8B64C;" d="M180.267,203.2c0,0-97.067,22.4-76.8,68.267c0,0,20.267,35.2,68.267-10.667
	c0,0,14.933-28.8,29.867-53.333l0,0L180.267,184V203.2z"/>
<path style="fill:#84DBFF;" d="M491.733,9.067H199.467C188.8,9.067,179.2,17.6,179.2,29.333v181.333
	c0,10.667,8.533,20.267,20.267,20.267h288c1.067,0,2.133,0,2.133,0c11.733-1.067,21.333-11.733,21.333-24.533V29.333
	C512,18.667,503.467,9.067,491.733,9.067z"/>
<rect x="180.267" y="51.733" style="fill:#334A5E;" width="331.733" height="38.4"/>
<rect x="218.667" y="128.533" style="fill:#FFFFFF;" width="69.333" height="11.733"/>
<rect x="218.667" y="176.533" style="fill:#40596B;" width="44.8" height="11.733"/>
<rect x="288" y="176.533" style="fill:#FF7058;" width="44.8" height="11.733"/>
<rect x="358.4" y="176.533" style="fill:#40596B;" width="44.8" height="11.733"/>
<rect x="427.733" y="176.533" style="fill:#FF7058;" width="44.8" height="11.733"/>
<path style="fill:#F4AA40;" d="M274.133,224.533c0,0,26.667,9.6,32,36.267c2.133,10.667-4.267,21.333-14.933,22.4
	c-2.133,0-4.267,0-7.467,0c0,0,10.667,28.8-12.8,29.867c0,0-3.2,10.667-9.6,18.133c-6.4,6.4-17.067,6.4-23.467,0
	c-4.267-4.267-9.6-11.733-12.8-23.467l10.667-60.8L274.133,224.533z"/>
<g>
	<path style="fill:#F2A138;" d="M232.533,292.8c0,0,16,19.2,24.533,23.467c5.333,2.133,11.733,2.133,12.8-2.133
		c0,0-19.2-4.267-30.933-32L232.533,292.8z"/>
	<path style="fill:#F2A138;" d="M257.067,256.533c0,0,4.267,23.467,26.667,26.667c0,0-4.267,7.467-16,3.2
		c-5.333-2.133-9.6-5.333-13.867-10.667c-2.133-3.2-5.333-8.533-7.467-13.867C242.133,251.2,257.067,256.533,257.067,256.533z"/>
</g>
<path style="fill:#FFD15C;" d="M293.333,194.667c0,0-18.133,38.4-36.267,64c0,0-32,34.133-44.8,81.067c0,0-4.267,42.667-25.6,78.933
	c-2.133,3.2-4.267,7.467-6.4,10.667H8.533c0-3.2,0-7.467,0-10.667c0-22.4,2.133-44.8,5.333-66.133
	c3.2-26.667,6.4-66.133,7.467-124.8c0,0,1.067-17.067,34.133-29.867l93.867-52.267c9.6-5.333,19.2-7.467,30.933-7.467V203.2
	c0,0-40.533,9.6-64,27.733c-26.667,21.333,1.067,62.933,30.933,48c0,0,1.067,0,1.067-1.067c12.8-7.467,23.467-18.133,30.933-30.933
	c11.733-21.333,34.133-60.8,45.867-69.333c0,0,25.6-38.4,53.333-25.6C306.133,164.8,293.333,194.667,293.333,194.667z"/>
<path style="fill:#F2F2F2;" d="M266.667,213.867C258.133,216,238.933,202.133,236.8,193.6c-2.133-9.6,22.4-33.067,22.4-33.067
	l29.867,20.267C289.067,180.8,276.267,211.733,266.667,213.867z"/>
<path style="fill:#FCC854;" d="M186.667,419.733c-2.133,3.2-4.267,7.467-6.4,10.667H8.533c0-3.2,0-7.467,0-10.667H186.667z"/>
<rect x="5.333" y="430.4" style="fill:#F2F2F2;" width="179.2" height="18.133"/>
<rect y="448.533" style="fill:#40596B;" width="189.867" height="54.4"/>
<circle style="fill:#F2F2F2;" cx="162.133" cy="476.267" r="12.8"/>
<g>
</g>
<g>
</g>
<g>
</g>
<g>
</g>
<g>
</g>
<g>
</g>
<g>
</g>
<g>
</g>
<g>
</g>
<g>
</g>
<g>
</g>
<g>
</g>
<g>
</g>
<g>
</g>
<g>
</g>
</svg>
