<?xml version="1.0" encoding="iso-8859-1"?>
<!-- Generator: Adobe Illustrator 19.0.0, SVG Export Plug-In . SVG Version: 6.00 Build 0)  -->
<svg version="1.1" id="Capa_1" xmlns="http://www.w3.org/2000/svg" xmlns:xlink="http://www.w3.org/1999/xlink" x="0px" y="0px"
	 viewBox="0 0 512.187 512.187" style="enable-background:new 0 0 512.187 512.187;" xml:space="preserve">
<g>
	<polygon style="fill:#F8B64C;" points="187.925,345.576 132.49,240.883 211.552,161.149 313.034,171.368 	"/>
	<path style="fill:#F8B64C;" d="M245.301,385.32l45.152-150.613l54.123-36.32l-2.187,33.045c0,0,18.539,25.707-0.853,56.533
		l-4.075,12.971c0,0,4.971,17.483-7.776,29.067l0.096,10.752c0,0,1.152,6.517-2.304,15.851
		c-6.368,17.141-23.115,28.213-41.419,28.363L245.301,385.32z"/>
</g>
<g>
	<path style="fill:#FFD15C;" d="M281.93,317.341c0,0,1.472-43.712,56.629-78.603c0,0,29.088,32.683-23.872,68.832
		C314.677,307.571,293.045,326.931,281.93,317.341"/>
	<path style="fill:#FFD15C;" d="M279.808,330.131c0,0,14.453,7.893,52.597-27.648c0,0,15.147,36.384-60.661,51.808L279.808,330.131z
		"/>
	<path style="fill:#FFD15C;" d="M268.394,361.256c0,0,32.373,6.4,58.752-21.728c0,0,3.371,44.587-66.027,40.544L268.394,361.256z"/>
</g>
<g>
	<path style="fill:#F2F2F2;" d="M491.658,192.349l-259.168,73.76c-11.339,3.232-23.136-3.339-26.368-14.677l-42.827-150.485
		c-3.221-11.339,3.349-23.125,14.677-26.357L437.162,0.819c11.328-3.221,23.125,3.349,26.357,14.688l42.827,150.485
		C509.557,177.32,502.986,189.128,491.658,192.349"/>
	<path style="fill:#F2F2F2;" d="M322.314,240.552l-104.48,29.728c-3.253,0.917-6.624-0.949-7.541-4.203l-4.064-14.325
		c16.779-12.245,31.776-26.88,44.608-43.307c12.949-16.608,30.005-35.68,46.475-45.653c12.949-7.829,51.968-25.525,58.123,17.024
		C355.434,179.816,365.109,204.68,322.314,240.552"/>
</g>
<rect x="215.993" y="215.16" transform="matrix(-0.9618 0.2736 -0.2736 -0.9618 534.0468 374.5687)" style="fill:#CDD6E0;" width="49.822" height="18.73"/>
<rect x="289.908" y="194.178" transform="matrix(-0.9618 0.2738 -0.2738 -0.9618 673.3512 313.1099)" style="fill:#ACB3BA;" width="49.835" height="18.731"/>
<rect x="363.811" y="173.146" transform="matrix(-0.9618 0.2736 -0.2736 -0.9618 812.5469 251.6994)" style="fill:#CDD6E0;" width="49.822" height="18.73"/>
<rect x="437.653" y="152.102" transform="matrix(-0.9618 0.2738 -0.2738 -0.9618 951.6848 190.1127)" style="fill:#ACB3BA;" width="49.846" height="18.731"/>
<rect x="197.369" y="143.46" transform="matrix(-0.9618 0.2738 -0.2738 -0.9618 565.2685 226.77)" style="fill:#FFD15C;" width="138.882" height="18.742"/>
<rect x="181.635" y="90.907" transform="matrix(-0.9618 0.2737 -0.2737 -0.9618 481.5462 133.3725)" style="fill:#FF7058;" width="99.668" height="18.741"/>
<path style="fill:#54C0EB;" d="M427.53,68.723c4.299,15.147-4.48,30.923-19.627,35.243c-15.147,4.299-30.912-4.48-35.232-19.627
	c-4.32-15.147,4.469-30.912,19.616-35.232S423.221,53.576,427.53,68.723"/>
<path style="fill:#84DBFF;" d="M459.52,59.624c4.309,15.147-4.469,30.923-19.616,35.232c-15.147,4.309-30.923-4.48-35.232-19.616
	c-4.309-15.147,4.469-30.912,19.616-35.232S455.21,44.467,459.52,59.624"/>
<path style="fill:#FFD15C;" d="M322.314,240.552c-4.672,3.669-9.707,7.776-15.552,11.829c0,0-28.277,26.005-40.299,90.624
	c0,0-20.992,101.44-112.416,130.496L42.602,372.883l58.901-166.997c4.928-13.941,15.243-25.333,28.651-31.584l47.691-22.293
	l25.237,88.683l-46.944,28.075c-3.008,1.781-3.861,5.696-1.931,8.587c1.355,2.005,3.701,2.965,5.963,2.624
	c0.747-0.117,1.515-0.384,2.197-0.779l27.424-16.491c5.664-3.403,11.125-7.029,16.437-10.944
	c16.779-12.245,31.776-26.88,44.608-43.307c12.949-16.608,30.005-35.68,46.475-45.653c10.699-6.464,33.024-17.013,49.035,1.312
	c8.608,9.856,11.317,23.755,7.232,36.171C349.984,211.219,341.504,225.491,322.314,240.552"/>
<path style="fill:#FFFFFF;" d="M338.773,207.613c1.781-1.419,3.424-3.04,4.832-4.96c8.501-11.509,6.059-27.733-5.451-36.224
	s-27.733-6.059-36.224,5.461c-1.408,1.92-2.485,3.957-3.317,6.08L338.773,207.613z"/>
<path style="fill:#F9C553;" d="M168.704,468.051c-4.704,2.08-9.557,3.957-14.677,5.525L42.602,372.883l5.109-14.453
	c2.08,0.939,4.128,2.347,5.973,4l110.112,99.637C165.77,463.816,167.445,465.843,168.704,468.051"/>
<path style="fill:#40596B;" d="M158.997,464.925l-110.112-99.68c-4.629-4.181-11.765-3.819-15.936,0.8L7.946,393.661
	c-4.192,4.619-3.819,11.765,0.789,15.936l110.112,99.669c4.629,4.181,11.755,3.829,15.925-0.779l25.003-27.627
	C163.968,476.232,163.616,469.117,158.997,464.925"/>
<g>
</g>
<g>
</g>
<g>
</g>
<g>
</g>
<g>
</g>
<g>
</g>
<g>
</g>
<g>
</g>
<g>
</g>
<g>
</g>
<g>
</g>
<g>
</g>
<g>
</g>
<g>
</g>
<g>
</g>
</svg>
